<svg height="412pt" viewBox="-38 0 412 412" width="412pt" xmlns="http://www.w3.org/2000/svg"><path d="m51.488281 287.691406c3.132813-.003906 5.671875-2.546875 5.671875-5.679687 0-3.132813-2.539062-5.671875-5.671875-5.671875-3.132812 0-5.675781 2.539062-5.679687 5.671875 0 3.136719 2.542968 5.679687 5.679687 5.679687zm58.121094 0c3.136719 0 5.679687-2.539062 5.679687-5.671875.003907-3.132812-2.535156-5.675781-5.667968-5.679687-3.136719-.003906-5.679688 2.535156-5.679688 5.671875 0 3.132812 2.535156 5.671875 5.667969 5.679687zm58.121094 46.707032c2.300781 0 4.164062-1.867188 4.160156-4.167969s-1.871094-4.164063-4.171875-4.160157c-2.300781.003907-4.160156 1.871094-4.160156 4.167969.003906 2.300781 1.871094 4.164063 4.171875 4.160157zm58.121093-46.707032c3.132813 0 5.675782-2.539062 5.679688-5.671875 0-3.132812-2.535156-5.675781-5.671875-5.679687-3.132813-.003906-5.675781 2.535156-5.679687 5.671875 0 3.132812 2.539062 5.671875 5.671874 5.679687zm58.117188 0c3.136719 0 5.679688-2.539062 5.679688-5.671875.003906-3.132812-2.535157-5.675781-5.667969-5.679687-3.132813-.003906-5.675781 2.535156-5.679688 5.671875.003907 3.128906 2.539063 5.667969 5.667969 5.679687zm45.492188-109.671875v207.980469c0 11.046875-8.957032 20-20 20h-283.460938c-11.046875 0-20-8.953125-20-20v-207.980469c.003906-11.042969 8.957031-19.996093 20-20h283.460938c11.042968.003907 19.996093 8.957031 20 20zm0 0" fill="#f8ec7d"/><path d="m210.859375 6c35.726563 0 64.6875 28.964844 64.691406 64.691406v87.328125h-21.570312v-87.328125c-.023438-23.808594-19.3125-43.101562-43.121094-43.132812h-26.960937v-21.558594zm0 0" fill="#6fe3ff"/><path d="m81.480469 156.941406v1.078125h-21.570313v-87.328125c0-35.726562 28.964844-64.691406 64.691406-64.691406h26.957032v21.558594h-26.957032c-23.808593.03125-43.097656 19.324218-43.121093 43.132812zm0 0" fill="#6fe3ff"/><g fill="#63316d"><path d="m210.859375 0h-86.257813c-39.023437.0429688-70.648437 31.667969-70.691406 70.691406v81.328125h-27.910156c-14.351562.015625-25.984375 11.648438-26 26v207.980469c.015625 14.351562 11.648438 25.984375 26 26h283.460938c14.351562-.015625 25.984374-11.648438 26-26v-207.980469c-.015626-14.351562-11.648438-25.984375-26-26h-27.910157v-81.328125c-.042969-39.023437-31.667969-70.6484372-70.691406-70.691406zm58.691406 70.691406v81.328125h-9.570312v-81.328125c-.027344-27.121094-22.003907-49.097656-49.121094-49.132812h-20.960937v-9.558594h20.960937c32.398437.035156 58.652344 26.292969 58.691406 58.691406zm-111.992187-49.132812v-9.558594h20.339844v9.558594zm53.300781 12c20.496094.027344 37.101563 16.636718 37.121094 37.132812v81.328125h-160.5v-81.328125c.019531-20.496094 16.625-37.105468 37.121093-37.132812zm-144.949219 37.132812c.035156-32.398437 26.292969-58.65625 58.691406-58.691406h20.957032v9.558594h-20.957032c-27.121093.035156-49.09375 22.011718-49.121093 49.132812v81.328125h-9.570313zm257.550782 107.328125v207.980469c-.007813 7.730469-6.273438 13.992188-14 14h-283.460938c-7.730469-.007812-13.992188-6.269531-14-14v-207.980469c.007812-7.726562 6.269531-13.992187 14-14h283.460938c7.726562.007813 13.992187 6.273438 14 14zm0 0"/><path d="m109.609375 293.691406c6.449219 0 11.679687-5.222656 11.679687-11.671875.003907-6.449219-5.222656-11.675781-11.667968-11.679687-6.449219-.003906-11.679688 5.222656-11.679688 11.671875.003906 6.441406 5.222656 11.667969 11.667969 11.679687zm0-12c.085937-.003906.171875.027344.234375.089844.058594.058594.097656.140625.097656.230469 0 .179687-.148437.328125-.332031.328125-.179687 0-.328125-.148438-.328125-.328125 0-.089844.035156-.171875.097656-.230469.0625-.0625.144532-.09375.230469-.089844zm0 0"/><path d="m225.851562 293.691406c6.445313 0 11.675782-5.222656 11.679688-11.671875 0-6.449219-5.222656-11.675781-11.671875-11.679687s-11.675781 5.222656-11.679687 11.671875c.003906 6.441406 5.226562 11.667969 11.671874 11.679687zm0-12c.085938-.003906.167969.027344.230469.089844.0625.058594.097657.140625.097657.230469 0 .179687-.148438.328125-.328126.328125-.183593 0-.332031-.148438-.332031-.328125 0-.089844.035157-.171875.097657-.230469.0625-.0625.144531-.09375.234374-.089844zm0 0"/><path d="m51.488281 293.691406c6.449219-.003906 11.671875-5.230468 11.671875-11.679687 0-6.445313-5.226562-11.671875-11.671875-11.671875-6.449219 0-11.675781 5.222656-11.679687 11.671875.007812 6.445312 5.234375 11.671875 11.679687 11.679687zm0-12c.085938-.003906.167969.03125.230469.089844.058594.0625.09375.144531.089844.230469.003906.085937-.027344.167969-.089844.230469-.058594.0625-.140625.097656-.230469.097656-.085937 0-.171875-.03125-.234375-.09375s-.09375-.148438-.09375-.234375c0-.089844.035156-.171875.097656-.230469.0625-.0625.144532-.09375.230469-.089844zm0 0"/><path d="m283.96875 293.691406c6.449219 0 11.679688-5.222656 11.679688-11.671875.003906-6.449219-5.21875-11.675781-11.667969-11.679687s-11.675781 5.222656-11.679688 11.671875c.007813 6.441406 5.226563 11.664062 11.667969 11.679687zm0-12c.085938-.003906.171875.027344.234375.089844.0625.058594.097656.140625.097656.230469 0 .085937-.035156.171875-.097656.234375s-.144531.09375-.234375.09375c-.085938 0-.167969-.035156-.226562-.097656-.0625-.0625-.09375-.144532-.09375-.230469 0-.085938.03125-.167969.09375-.230469.058593-.058594.140624-.09375.226562-.089844zm0 0"/><path d="m142.730469 260.621094c3.3125 0 6-2.6875 6-6 0-5.277344 2.191406-10.316406 6.050781-13.910156 3.863281-3.59375 9.042969-5.421876 14.304688-5.046876 8.328124.59375 15.292968 6.550782 17.167968 14.683594 1.875 8.132813-1.777344 16.539063-9 20.71875-9.683594 5.738282-15.59375 16.1875-15.523437 27.445313v10.847656c0 3.3125 2.6875 6 6 6s6-2.6875 6-6v-10.847656c-.078125-6.980469 3.554687-13.472657 9.539062-17.0625 13.011719-7.539063 18.738281-23.328125 13.582031-37.453125s-19.707031-22.511719-34.515624-19.894532c-14.808594 2.613282-25.601563 15.480469-25.605469 30.519532 0 3.3125 2.6875 6 6 6zm0 0"/><path d="m167.730469 320.070312c-5.613281.003907-10.160157 4.554688-10.160157 10.167969 0 5.609375 4.550782 10.160157 10.164063 10.160157 5.613281.003906 10.164063-4.546876 10.164063-10.160157-.003907-5.613281-4.554688-10.160156-10.167969-10.167969zm0 12c-.742188 0-1.414063-.445312-1.699219-1.128906-.285156-.6875-.128906-1.476562.394531-2.003906.527344-.527344 1.316407-.683594 2.003907-.398438.6875.285157 1.132812.957032 1.128906 1.699219 0 1.011719-.820313 1.832031-1.828125 1.832031zm0 0"/></g></svg>