<?xml version="1.0"?>
<svg xmlns="http://www.w3.org/2000/svg" height="512px" viewBox="0 0 511 511.87331" width="512px" class="hovered-paths"><g><path d="m95.644531 121.660156c.640625-.101562 1.285157-.140625 1.933594-.121094h44.527344c-9.269531.007813-37.410157.484376-46.460938.121094zm62.960938 60.53125c-16.640625 1.183594-33.367188.203125-49.753907-2.910156-17.496093-4.636719-41.859374-20.242188-34.046874-41.605469 3.191406-8.753906 11.046874-14.960937 20.300781-16.039062-7.664063-.15625-15.289063-1.164063-22.730469-3.003907-17.417969-4.546874-41.78125-20.300781-34.054688-41.601562 3.46875-9.625 12.570313-16.0625 22.800782-16.128906h80.964844l-.078126-.265625h-55.242187c-6.859375 0-13.640625.257812-20.417969.175781-10.210937.304688-20.417968-.734375-30.359375-3.089844-17.417969-4.535156-41.859375-20.230468-34.058593-41.59375 3.480468-9.625 12.589843-16.0624998 22.820312-16.128906l129.519531.175781c60.246094.03125 109.074219 48.863281 109.101563 109.109375v1.546875zm0 0" fill="#f9eab0" data-original="#F9EAB0" class="" data-old_color="#f9eab0" style="fill:#E7E3D5"/><path d="m119.804688 130.621094c-4.675782 0-8.703126 0-11.316407-.140625-4.453125-.191407-8.066406-3.679688-8.417969-8.125-.347656-4.445313 2.671876-8.457031 7.042969-9.34375 1.210938-.214844 2.441407-.316407 3.671875-.300781h44.515625c4.875 0 8.828125 3.953124 8.828125 8.828124s-3.953125 8.828126-8.828125 8.828126c-2.839843 0-7.492187.050781-12.824219.105468-7.328124.070313-15.722656.148438-22.671874.148438zm0 0" fill="#f3d55b" data-original="#F3D55B"/><path d="m84.46875 69.738281c-6.179688 0-11.527344 0-15.007812-.140625-4.570313-.136718-8.28125-3.746094-8.546876-8.316406-.265624-4.566406 3.003907-8.578125 7.535157-9.242188 1.285156-.160156 2.585937-.230468 3.882812-.210937h59.699219c4.875 0 8.828125 3.949219 8.828125 8.828125 0 4.875-3.953125 8.824219-8.828125 8.824219-3.820312 0-10.0625.046875-17.222656.097656-9.789063.070313-21.042969.160156-30.339844.160156zm0 0" fill="#f3d55b" data-original="#F3D55B"/><path d="m390.769531 370.253906v44.519532c.019531.648437-.019531 1.300781-.125 1.941406-.359375-9.101563.125-37.242188.125-46.460938zm10.714844-121.324218h1.546875c60.246094.035156 109.074219 48.863281 109.109375 109.109374l.167969 129.527344c-.0625 10.230469-6.503906 19.339844-16.128906 22.808594-21.355469 7.8125-37.078126-16.640625-41.605469-34.046875-2.351563-9.945313-3.386719-20.152344-3.082031-30.367187-.085938-6.78125.167968-13.550782.167968-20.417969v-55.234375l-.253906-.089844v80.976562c-.054688 10.234376-6.496094 19.347657-16.128906 22.8125-21.273438 7.722657-37.074219-16.640624-41.605469-34.050781-1.835937-7.441406-2.84375-15.066406-3-22.730469-1.070313 9.28125-7.292969 17.160157-16.074219 20.347657-21.355468 7.804687-36.96875-16.558594-41.605468-34.054688-3.109376-16.390625-4.089844-33.113281-2.914063-49.753906zm0 0" fill="#f9eab0" data-original="#F9EAB0" class="" data-old_color="#f9eab0" style="fill:#E7E3D5"/><path d="m390.664062 416.714844c-.242187 0-.472656 0-.6875 0-4.464843-.34375-7.960937-3.976563-8.140624-8.449219-.273438-6.496094-.113282-21.757813 0-34.027344.0625-5.296875.097656-9.949219.097656-12.785156 0-4.875 3.953125-8.828125 8.828125-8.828125s8.824219 3.953125 8.824219 8.828125v44.519531c.023437 1.226563-.074219 2.453125-.289063 3.664063-.832031 4.109375-4.4375 7.070312-8.632813 7.078125zm0 0" fill="#f3d55b" data-original="#F3D55B"/><path d="m451.714844 449.933594c-.183594 0-.363282 0-.546875 0-4.558594-.277344-8.152344-3.980469-8.289063-8.546875-.257812-8.359375-.105468-28.246094 0-44.136719.0625-6.980469.097656-13.074219.097656-16.773438 0-4.875 3.949219-8.828124 8.828126-8.828124 4.875 0 8.824218 3.953124 8.824218 8.828124v58.167969c.023438 1.289063-.046875 2.582031-.21875 3.863281-.6875 4.273438-4.371094 7.414063-8.695312 7.425782zm0 0" fill="#f3d55b" data-original="#F3D55B"/><path d="m260.632812 219.621094-118.113281-13.152344c-.253906-4.96875 1.605469-9.8125 5.121094-13.328125l86.507813-86.511719c3.574218-3.65625 8.589843-5.53125 13.683593-5.121094zm0 0" fill="#f29c1f" data-original="#F29C1F" class="" data-old_color="#f29c1f" style="fill:#F2EE1F"/><path d="m305.917969 369.691406c-4.417969-.097656-8.625-1.898437-11.742188-5.03125l-146.535156-146.539062c-3.136719-3.085938-4.96875-7.257813-5.121094-11.652344l118.113281 13.152344 2.117188 19.246094c.601562 5.628906 5.050781 10.078124 10.683594 10.679687l19.332031 2.207031zm0 0" fill="#e57e25" data-original="#E57E25" class="" data-old_color="#e57e25" style="fill:#E5C625"/><path d="m410.878906 265.171875c.167969 4.847656-1.6875 9.546875-5.121094 12.976563l-86.597656 86.511718c-3.472656 3.523438-8.304687 5.359375-13.242187 5.03125l-13.152344-117.9375zm0 0" fill="#f29c1f" data-original="#F29C1F" class="" data-old_color="#f29c1f" style="fill:#F2EE1F"/><path d="m410.878906 265.171875-118.113281-13.417969-19.332031-2.207031c-5.632813-.601563-10.082032-5.050781-10.683594-10.679687l-2.117188-19.246094-12.800781-118.113282c4.257813.296876 8.269531 2.113282 11.300781 5.121094l146.625 146.539063c3.234376 3.160156 5.078126 7.480469 5.121094 12.003906zm0 0" fill="#f0c419" data-original="#F0C419" class="" style="fill:#F0C419" data-old_color="#f0c419"/><g fill="#67b9cc"><path d="m44.445312 317.519531c-3.570312 0-6.789062-2.152343-8.152343-5.449219-1.367188-3.296874-.613281-7.09375 1.910156-9.621093l61.792969-61.792969c3.464844-3.34375 8.972656-3.296875 12.375.109375 3.40625 3.40625 3.453125 8.910156.109375 12.375l-61.792969 61.792969c-1.65625 1.65625-3.902344 2.585937-6.242188 2.585937zm0 0" data-original="#67B9CC" class="hovered-path active-path" style="fill:#85C5D3" data-old_color="#67B9CC"/><path d="m44.445312 405.796875c-3.570312-.003906-6.789062-2.152344-8.152343-5.453125-1.367188-3.296875-.613281-7.09375 1.910156-9.617188l61.792969-61.792968c3.464844-3.34375 8.972656-3.296875 12.375.109375 3.40625 3.402343 3.453125 8.910156.109375 12.371093l-61.792969 61.792969c-1.65625 1.65625-3.902344 2.585938-6.242188 2.589844zm0 0" data-original="#67B9CC" class="hovered-path active-path" style="fill:#85C5D3" data-old_color="#67B9CC"/><path d="m97.410156 441.105469c-3.570312 0-6.789062-2.152344-8.152344-5.449219-1.367187-3.296875-.613281-7.09375 1.910157-9.621094l97.105469-97.101562c3.464843-3.34375 8.96875-3.296875 12.375.109375 3.40625 3.402343 3.453124 8.910156.105468 12.371093l-97.101562 97.105469c-1.65625 1.65625-3.902344 2.585938-6.242188 2.585938zm0 0" data-original="#67B9CC" class="hovered-path active-path" style="fill:#85C5D3" data-old_color="#67B9CC"/><path d="m220.996094 494.070312c-3.570313 0-6.785156-2.152343-8.152344-5.449218s-.613281-7.09375 1.914062-9.617188l61.792969-61.792968c3.460938-3.347657 8.96875-3.300782 12.371094.105468 3.40625 3.40625 3.453125 8.910156.109375 12.375l-61.792969 61.792969c-1.65625 1.65625-3.898437 2.585937-6.242187 2.585937zm0 0" data-original="#67B9CC" class="hovered-path active-path" style="fill:#85C5D3" data-old_color="#67B9CC"/><path d="m132.722656 494.070312c-3.570312 0-6.789062-2.152343-8.15625-5.449218-1.363281-3.296875-.609375-7.09375 1.914063-9.617188l61.792969-61.792968c3.464843-3.347657 8.96875-3.300782 12.375.105468s3.453124 8.910156.105468 12.375l-61.792968 61.792969c-1.652344 1.65625-3.898438 2.585937-6.238282 2.585937zm0 0" data-original="#67B9CC" class="hovered-path active-path" style="fill:#85C5D3" data-old_color="#67B9CC"/></g></g> </svg>
