<svg xmlns="http://www.w3.org/2000/svg" xmlns:xlink="http://www.w3.org/1999/xlink" viewBox="0 0 711.1 710.96"><defs><style>.cls-1{fill:none;}.cls-2{clip-path:url(#clip-path);}.cls-3{fill:url(#linear-gradient);}.cls-4{fill:url(#linear-gradient-2);}.cls-5{fill:url(#linear-gradient-3);}.cls-6{fill:#6150e2;}.cls-7{fill:url(#linear-gradient-4);}.cls-8{fill:url(#linear-gradient-5);}.cls-9{fill:url(#linear-gradient-6);}.cls-10{fill:#ffd9b6;}.cls-11{fill:url(#linear-gradient-7);}.cls-12{fill:url(#linear-gradient-8);}.cls-13{fill:url(#linear-gradient-9);}.cls-14{fill:url(#linear-gradient-10);}.cls-15{fill:url(#linear-gradient-11);}.cls-16{fill:url(#linear-gradient-12);}.cls-17{fill:url(#linear-gradient-13);}.cls-18{fill:url(#linear-gradient-14);}.cls-19{fill:url(#linear-gradient-15);}.cls-20{fill:url(#linear-gradient-16);}.cls-21{fill:url(#linear-gradient-17);}.cls-22{fill:url(#linear-gradient-18);}.cls-23{fill:url(#linear-gradient-19);}.cls-24{fill:url(#linear-gradient-20);}.cls-25{fill:url(#linear-gradient-21);}.cls-26{fill:url(#linear-gradient-22);}.cls-27{fill:url(#linear-gradient-23);}.cls-28{fill:url(#linear-gradient-24);}.cls-29{fill:url(#linear-gradient-25);}.cls-30{fill:url(#linear-gradient-26);}</style><clipPath id="clip-path"><rect class="cls-1" x="176.09" y="177.05" width="357.23" height="357.23"/></clipPath><linearGradient id="linear-gradient" x1="339.48" y1="649.37" x2="360.87" y2="258.21" gradientTransform="translate(-142.1 427.04) rotate(-53.18)" gradientUnits="userSpaceOnUse"><stop offset="0" stop-color="#795fee"/><stop offset="0.08" stop-color="#7a68ef"/><stop offset="0.49" stop-color="#8095f2"/><stop offset="0.81" stop-color="#84b1f3"/><stop offset="1" stop-color="#85bbf4"/></linearGradient><linearGradient id="linear-gradient-2" x1="121.34" y1="165.36" x2="121.34" y2="405.28" gradientTransform="matrix(1, 0, 0, 1, 0, 0)" xlink:href="#linear-gradient"/><linearGradient id="linear-gradient-3" x1="589.66" y1="165.36" x2="589.66" y2="405.28" gradientTransform="matrix(1, 0, 0, 1, 0, 0)" xlink:href="#linear-gradient"/><linearGradient id="linear-gradient-4" x1="-6829.28" y1="-349.72" x2="-6829.28" y2="-298.13" gradientTransform="translate(-5086.85 4512.31) rotate(139.86)" gradientUnits="userSpaceOnUse"><stop offset="0" stop-color="#071786"/><stop offset="0.15" stop-color="#05136b"/><stop offset="0.32" stop-color="#041055"/><stop offset="0.51" stop-color="#030e45"/><stop offset="0.72" stop-color="#020c3b"/><stop offset="1" stop-color="#020c38"/></linearGradient><linearGradient id="linear-gradient-5" x1="-4797.24" y1="-1353.18" x2="-4797.24" y2="-1301.58" gradientTransform="translate(328.93 5356.27) rotate(74.84)" xlink:href="#linear-gradient-4"/><linearGradient id="linear-gradient-6" x1="-3098.42" y1="236.34" x2="-3098.42" y2="215.32" gradientTransform="translate(3417.47 530.27) rotate(7.05)" gradientUnits="userSpaceOnUse"><stop offset="0" stop-color="#ffd1c1"/><stop offset="0.39" stop-color="#ffcfbf"/><stop offset="0.59" stop-color="#ffc9b7"/><stop offset="0.75" stop-color="#ffbda9"/><stop offset="0.88" stop-color="#ffae97"/><stop offset="1" stop-color="#ff9a7f"/></linearGradient><linearGradient id="linear-gradient-7" x1="-3112.42" y1="231.63" x2="-3084.42" y2="231.63" gradientTransform="translate(3417.47 530.27) rotate(7.05)" xlink:href="#linear-gradient-4"/><linearGradient id="linear-gradient-8" x1="-3088.61" y1="219.3" x2="-3088.61" y2="176.24" gradientTransform="translate(3417.47 530.27) rotate(7.05)" xlink:href="#linear-gradient-4"/><linearGradient id="linear-gradient-9" x1="-2946.3" y1="521.79" x2="-2949.09" y2="520.18" gradientTransform="translate(3249.28 -424.47) rotate(-4.32)" gradientUnits="userSpaceOnUse"><stop offset="0" stop-color="#e2b691"/><stop offset="1" stop-color="#ef9367"/></linearGradient><linearGradient id="linear-gradient-10" x1="-2931.18" y1="528.5" x2="-2940.62" y2="523.05" gradientTransform="translate(3249.28 -424.47) rotate(-4.32)" xlink:href="#linear-gradient-6"/><linearGradient id="linear-gradient-11" x1="-2932.4" y1="522.02" x2="-2949.81" y2="511.97" gradientTransform="translate(3249.28 -424.47) rotate(-4.32)" xlink:href="#linear-gradient-6"/><linearGradient id="linear-gradient-12" x1="289.1" y1="515.68" x2="315.3" y2="515.68" gradientTransform="matrix(-1, 0.08, 0.08, 1, 617.57, -225.29)" xlink:href="#linear-gradient-4"/><linearGradient id="linear-gradient-13" x1="-2937.88" y1="520.09" x2="-2942.45" y2="517.46" gradientTransform="translate(3249.28 -424.47) rotate(-4.32)" xlink:href="#linear-gradient-6"/><linearGradient id="linear-gradient-14" x1="314" y1="573.14" x2="279.01" y2="538.15" gradientTransform="matrix(-1, 0.08, 0.08, 1, 617.57, -225.29)" xlink:href="#linear-gradient"/><linearGradient id="linear-gradient-15" x1="363.81" y1="355.61" x2="378.51" y2="340.37" gradientTransform="matrix(1, 0, 0, 1, 0, 0)" xlink:href="#linear-gradient"/><linearGradient id="linear-gradient-16" x1="74.31" y1="677.1" x2="66.52" y2="706.12" gradientTransform="translate(45.47 -277.68) rotate(-19.36)" xlink:href="#linear-gradient-6"/><linearGradient id="linear-gradient-17" x1="324.3" y1="538.05" x2="341.89" y2="538.05" gradientTransform="translate(-44.74 -175.45) rotate(-4.32)" gradientUnits="userSpaceOnUse"><stop offset="0" stop-color="#18154b"/><stop offset="0.13" stop-color="#191650"/><stop offset="0.28" stop-color="#1c1a5f"/><stop offset="0.45" stop-color="#212078"/><stop offset="0.63" stop-color="#27299a"/><stop offset="0.82" stop-color="#2f34c5"/><stop offset="1" stop-color="#3941f7"/></linearGradient><linearGradient id="linear-gradient-18" x1="325.61" y1="537.44" x2="339.4" y2="537.44" gradientTransform="translate(-44.74 -175.45) rotate(-4.32)" gradientUnits="userSpaceOnUse"><stop offset="0.05" stop-color="#f8f2fa"/><stop offset="0.22" stop-color="#f4f1fa"/><stop offset="0.39" stop-color="#e9ecfa"/><stop offset="0.55" stop-color="#d5e5fb"/><stop offset="0.72" stop-color="#badafc"/><stop offset="0.88" stop-color="#97cdfd"/><stop offset="1" stop-color="#78c1fe"/></linearGradient><linearGradient id="linear-gradient-19" x1="66.33" y1="684.9" x2="63.51" y2="674.33" gradientTransform="translate(45.47 -277.68) rotate(-19.36)" xlink:href="#linear-gradient-6"/><linearGradient id="linear-gradient-20" x1="-3988.59" y1="-1719.59" x2="-3991.84" y2="-1690.22" gradientTransform="translate(4590.77 1290.79) rotate(-10.62)" xlink:href="#linear-gradient-6"/><linearGradient id="linear-gradient-21" x1="363.74" y1="350.72" x2="344.05" y2="333.52" gradientTransform="matrix(1, 0, 0, 1, 0, 0)" xlink:href="#linear-gradient"/><linearGradient id="linear-gradient-22" x1="-5711.33" y1="-693.28" x2="-5713.64" y2="-715.09" gradientTransform="translate(-1357.53 5891.47) rotate(99.6)" xlink:href="#linear-gradient-6"/><linearGradient id="linear-gradient-23" x1="-5725.31" y1="-697.9" x2="-5699.39" y2="-697.9" gradientTransform="translate(-1357.53 5891.47) rotate(99.6)" xlink:href="#linear-gradient-4"/><linearGradient id="linear-gradient-24" x1="-5709.77" y1="-711.39" x2="-5714.43" y2="-755.39" gradientTransform="translate(-1357.53 5891.47) rotate(99.6)" xlink:href="#linear-gradient-4"/><linearGradient id="linear-gradient-25" x1="404.38" y1="311.36" x2="404.38" y2="330.77" gradientUnits="userSpaceOnUse"><stop offset="0" stop-color="#f9fbfc"/><stop offset="0.03" stop-color="#f5f8fc"/><stop offset="0.2" stop-color="#dfe8fe"/><stop offset="0.36" stop-color="#d2deff"/><stop offset="0.51" stop-color="#cddbff"/></linearGradient><linearGradient id="linear-gradient-26" x1="403.93" y1="366.93" x2="403.93" y2="419.13" xlink:href="#linear-gradient-25"/></defs><title>Varlık 4</title><g id="katman_2" data-name="katman 2"><g id="BACKGROUND"><g class="cls-2"><rect class="cls-3" x="101.76" y="101.33" width="507.58" height="508.3" transform="translate(427.01 -142.19) rotate(53.18)"/><path class="cls-4" d="M208.07,295.07c-30.22-36.94-29.62-87.69-20.73-130.69L0,304.65,178.32,542.81C258.07,486.93,258.5,356.7,208.07,295.07Z"/><path class="cls-5" d="M502.81,415.6c30.36,37.1,29.63,88.12,20.63,131.22L711.1,406.31,532.57,167.86C452.82,223.74,452.39,354,502.81,415.6Z"/></g></g><g id="OBJECTS"><path class="cls-6" d="M445.25,387.26c0,3.17-39,5.74-87.17,5.74s-87.17-2.57-87.17-5.74,39-5.74,87.17-5.74S445.25,384.09,445.25,387.26Z"/><path class="cls-7" d="M334,333.48c6.24,4.41,11.51,10.18,16.51,15.92,2.49,2.85,10,14.66,12.22,17.68,4.31,5.73,2.29,5.64-5.41,9.75a8.44,8.44,0,0,1-3.13,1c-12.93,1.31-18.9-15.63-22.79-24.74-1.68-4-3.51-8.84-4.94-12.9C327.59,332.92,334,333.48,334,333.48Z"/><path class="cls-8" d="M330.44,377c6.63-3.8,14.09-6.14,21.4-8.25,3.64-1.05,17.49-2.82,21.19-3.61,7-1.48,6.08.31,6.56,9a8.52,8.52,0,0,1-.46,3.25C374.86,389.7,357,388,347.08,387.63c-4.3-.15-9.5-.56-13.78-1C327.22,382.59,330.44,377,330.44,377Z"/><path class="cls-9" d="M327.87,379.77a9.44,9.44,0,0,0-.31-1.94c0-.18-.3-1.94-.28-2.13.29-2.79,1.88-10.36,1.88-10.36l-7.63-1.21s.13,6.78-1.5,10.52h0c-3.66,1.4-10.06,3-10.06,3s-7,.12-7.36.23a6.22,6.22,0,0,0-2.45,1s-1.06,1.65,7.28,4.23a28.85,28.85,0,0,0,9.61,1.27l3.89.22c1.33.07,5.3.51,5.87.21a1.45,1.45,0,0,0,.49-.4C328.18,383.35,327.84,381.1,327.87,379.77Z"/><path class="cls-10" d="M324.9,371.09c.09.43.16.87.22,1.32l.61-1.19Z"/><path class="cls-11" d="M327.56,377.83c0-.1-.12-.74-.2-1.29l-.92.33c-3.5,1.16-7,.49-10.38-.76l-.18-.07c-3,.9-5.9,1.65-5.9,1.65s-7,.12-7.36.23a6.22,6.22,0,0,0-2.45,1s-1.06,1.65,7.28,4.23a28.85,28.85,0,0,0,9.61,1.27l3.89.22c1.33.07,5.3.51,5.87.21a1.45,1.45,0,0,0,.49-.4c.87-1.1.53-3.35.56-4.68A9.44,9.44,0,0,0,327.56,377.83Z"/><path class="cls-12" d="M330.05,333.43H330a6.6,6.6,0,0,0-6.75,6c-.81,8.46-2,21-2.61,28.13L328.5,369a150.08,150.08,0,0,0,5.26-21.62,113.56,113.56,0,0,0,1.17-11.64c0-.59-.95-1.62-.92-2.27A28.82,28.82,0,0,0,330.05,333.43Z"/><polygon class="cls-13" points="348.79 314.27 350.25 318.68 347.71 319.52 348.79 314.27"/><path class="cls-14" d="M356.49,318.5c.09,1.44.44,9.9.44,9.9.94.92,5.17,1,6.83-.68a4.06,4.06,0,0,0,1.39-2.38L363.7,313Z"/><path class="cls-15" d="M362.37,303.75l.8,4.36,1.21,6.65.34,1.87c-3.73,7.6-10.75,8.9-13.23,6.65s-4.56-16-4.56-16Z"/><path class="cls-16" d="M361.9,323.15s-6.25-11-8-11.8-7.27.94-10.59-3.31-1.68-6.62-.53-6.92,3.66,3.85,7.34,1,11.77-3.53,13.24-.49c0,0,5.06.13,4.49,7.07s-2,12.84-3.68,13.48Z"/><path class="cls-17" d="M357.69,311c1.84,1.26,2.06,5.28-1.11,7.75l-1.87-6.49A2,2,0,0,1,357.69,311Z"/><path class="cls-18" d="M364.62,325.63c-4.78.56-12.29,2-13.67,7.47a21.64,21.64,0,0,0-.11,9c.42,2.32.79,4.65,1.07,7,.46,4,1,8.43-.07,12.34l-4.47,8.2s21.73,9.59,32.51-3.11c0,0-.69-31.63-5.74-39-.61-.9-2.15-1.3-3.12-1.54A17.74,17.74,0,0,0,364.62,325.63Z"/><path class="cls-19" d="M374.14,327.52c-.61-.9-2.15-1.3-3.12-1.54a17,17,0,0,0-4.85-.47v47.54c4.79-.39,9.8-1.89,13.71-6.49C379.88,366.56,379.19,334.93,374.14,327.52Z"/><path class="cls-20" d="M325.36,337.64a14.49,14.49,0,0,0,2.91,6.83c2.4,2.74,5.13,3.83,7.38,6.72,1.77,2.28,19.34,19.14,21.13,13a3.82,3.82,0,0,0-.38-2.44c-3-7.26-10.24-10.34-16.59-14.16L337.4,346s-1-4.14-3.59-6.42Z"/><path class="cls-21" d="M324.56,327.46l-5.28,6a1,1,0,0,0,.08,1.43l10.73,9.71a1,1,0,0,0,1.43-.07l5.19-5.7a1,1,0,0,0-.06-1.43l-10.63-10A1,1,0,0,0,324.56,327.46Z"/><path class="cls-22" d="M320.34,334.09l9.14,8.31,4.91-5.4-9.05-8.57Z"/><path class="cls-23" d="M330.81,344.55s.8-.49.47-2-1-5.12-1-5.12,0-1.28.52-1a4.41,4.41,0,0,1,2,3.31,7.54,7.54,0,0,0,.94,2.41,6.6,6.6,0,0,1,2,3.95S332.13,347.31,330.81,344.55Z"/><path class="cls-24" d="M357.53,364.09a6.81,6.81,0,0,0,.9-3.86c.12-3.59.29-7.17.45-10.76.07-1.59.14-3.19.2-4.79.11-3.26.33-8.06-3.95-8.84a3.58,3.58,0,0,0-2.83,1.21,4.19,4.19,0,0,0-.91,2,32.44,32.44,0,0,0-.34,5.16c-.17,3-.28,5.93-.3,8.9,0,1.91,0,3.83.1,5.74.09,1.58,0,3.57.76,5.05s2.68,1.81,4.09,1.41A3.38,3.38,0,0,0,357.53,364.09Z"/><path class="cls-25" d="M360.92,351.12c-.59-4.43,0-20.34-6.31-21-7-.72-5.66,21.18-5.66,21.18Z"/><path class="cls-26" d="M285,387.78a9.1,9.1,0,0,0,1.86-.64c.18-.07,1.87-.62,2.06-.64,2.79-.18,10.53.1,10.53.1l-.11-7.73s-6.66,1.29-10.62.31h0a60.21,60.21,0,0,0-6.32-7.95s-1.47-3.74-1.63-4.1,1-1.23.06-2.22c0,0-.19-5.18-1.31,3.47,0,0-2,3.59-.93,9.53l.45,3.87c.15,1.33.39,5.31.79,5.82a1.5,1.5,0,0,0,.47.42C281.5,388.69,283.66,388,285,387.78Z"/><path class="cls-27" d="M286.8,387.16a21.58,21.58,0,0,1-.13-5.82,11.85,11.85,0,0,1,1-3.89c-1.79-3.36-3.72-7.65-3.72-7.65s-1.36-4.91-1.53-5.27a6.51,6.51,0,0,0-1.41-2.25s-1.75-2.7-2.87,6a28.7,28.7,0,0,0,.38,9.69l.45,3.87c.15,1.33.39,5.31.79,5.82a1.5,1.5,0,0,0,.47.42c1.23.66,3.39,0,4.7-.25A9,9,0,0,0,286.8,387.16Z"/><path class="cls-28" d="M295.69,386.57c9.11,1.27,29.11,3,40.41-.85,1.78-.61,3.68-2.42,3.88-4.37a5.55,5.55,0,0,0-1.77-4.64c-1.08-.75-4.64-1-5.88-.95-3.51.16-25.92,1.95-36.51,2.8Z"/><path class="cls-29" d="M391.43,332.67a21.92,21.92,0,1,1,25.9,0h9.56a28.4,28.4,0,0,0,6.19-17.6,28.7,28.7,0,0,0-57.4,0,28.4,28.4,0,0,0,6.19,17.6Z"/><path class="cls-30" d="M433.88,321.85H374a4.33,4.33,0,0,0-4.33,4.33v56.75a4.33,4.33,0,0,0,4.33,4.33h59.89a4.33,4.33,0,0,0,4.33-4.33V326.18A4.33,4.33,0,0,0,433.88,321.85Zm-25.29,30.06v16.36a2.2,2.2,0,0,1-2.2,2.2h-4a2.21,2.21,0,0,1-2.2-2.2V351.91a8.7,8.7,0,0,1-4.58-7.63,8.88,8.88,0,0,1,8.53-8.74,8.71,8.71,0,0,1,4.47,16.37Z"/></g></g></svg>