<?xml version="1.0"?>
<svg xmlns="http://www.w3.org/2000/svg" height="512px" viewBox="0 0 504 504" width="512px" class=""><g><path d="m480 500h-456c-11.046875 0-20-8.953125-20-20v-456c0-11.046875 8.953125-20 20-20h456c11.046875 0 20 8.953125 20 20v456c0 11.046875-8.953125 20-20 20zm0 0" fill="#f4efed" data-original="#F4EFED" class=""/><path d="m480 4h-228v496h228c11.046875 0 20-8.953125 20-20v-456c0-11.046875-8.953125-20-20-20zm0 0" fill="#fcc24c" data-original="#FCC24C" class="" style="fill:#7BAC51" data-old_color="#fcc24c"/><path d="m4 24v104h496v-104c0-11.046875-8.953125-20-20-20h-456c-11.046875 0-20 8.953125-20 20zm0 0" fill="#7bac51" data-original="#7BAC51" class="" style="fill:#2820C6" data-old_color="#7bac51"/><path d="m24 480v-456c0-11.046875 8.953125-20 20-20h-20c-11.046875 0-20 8.953125-20 20v456c0 11.046875 8.953125 20 20 20h20c-11.046875 0-20-8.953125-20-20zm0 0" fill="#fff" data-original="#FFF" class=""/><path d="m44 4h-20c-11.046875 0-20 8.953125-20 20v104h20v-104c0-11.046875 8.953125-20 20-20zm0 0" fill="#99ca6f" data-original="#99CA6F" class="" style="fill:#2820C6" data-old_color="#99ca6f"/><path d="m480 4h-228v124h248v-104c0-11.046875-8.953125-20-20-20zm0 0" fill="#ff4397" data-original="#FF4397" class="" style="fill:#FF4397"/><path d="m480 480v-456c0-11.046875-8.953125-20-20-20h20c11.046875 0 20 8.953125 20 20v456c0 11.046875-8.953125 20-20 20h-20c11.046875 0 20-8.953125 20-20zm0 0" fill="#dea42e" data-original="#DEA42E" class="active-path" style="fill:#99CA6F" data-old_color="#dea42e"/><path d="m480 4h-20c11.046875 0 20 8.953125 20 20v104h20v-104c0-11.046875-8.953125-20-20-20zm0 0" fill="#e12579" data-original="#E12579" class=""/><g fill="#690589"><path d="m480 504h-456c-13.234375 0-24-10.765625-24-24v-456c0-13.234375 10.765625-24 24-24h456c13.234375 0 24 10.765625 24 24v456c0 13.234375-10.765625 24-24 24zm-456-496c-8.820312 0-16 7.179688-16 16v456c0 8.820312 7.179688 16 16 16h456c8.820312 0 16-7.179688 16-16v-456c0-8.820312-7.179688-16-16-16zm0 0" data-original="#690589" class=""/><path d="m500 256h-496c-2.207031 0-4-1.792969-4-4s1.792969-4 4-4h496c2.207031 0 4 1.792969 4 4s-1.792969 4-4 4zm0 0" data-original="#690589" class=""/><path d="m252 504c-2.207031 0-4-1.792969-4-4v-496c0-2.207031 1.792969-4 4-4s4 1.792969 4 4v496c0 2.207031-1.792969 4-4 4zm0 0" data-original="#690589" class=""/><path d="m500 380h-496c-2.207031 0-4-1.792969-4-4s1.792969-4 4-4h496c2.207031 0 4 1.792969 4 4s-1.792969 4-4 4zm0 0" data-original="#690589" class=""/><path d="m500 132h-248c-2.207031 0-4-1.792969-4-4v-124c0-2.207031 1.792969-4 4-4h228c13.234375 0 24 10.765625 24 24v104c0 2.207031-1.792969 4-4 4zm-244-8h240v-100c0-8.820312-7.179688-16-16-16h-224zm0 0" data-original="#690589" class=""/><path d="m500 132h-496c-2.207031 0-4-1.792969-4-4v-104c0-13.234375 10.765625-24 24-24h456c13.234375 0 24 10.765625 24 24v104c0 2.207031-1.792969 4-4 4zm-492-8h488v-100c0-8.820312-7.179688-16-16-16h-456c-8.820312 0-16 7.179688-16 16zm0 0" data-original="#690589" class=""/><path d="m20 59.601562c-2.207031 0-4-1.792968-4-4v-24c0-2.210937 1.792969-4 4-4s4 1.789063 4 4v24c0 2.207032-1.792969 4-4 4zm0 0" data-original="#690589" class=""/><path d="m127.949219 502c-2.210938 0-4-1.792969-4-4v-368.59375c0-2.207031 1.789062-4 4-4 2.207031 0 4 1.792969 4 4v368.59375c0 2.207031-1.792969 4-4 4zm0 0" data-original="#690589" class=""/></g></g> </svg>
