<svg xmlns="http://www.w3.org/2000/svg" viewBox="0 0 1840 1973.42"><defs><style>.cls-1{isolation:isolate;}.cls-14,.cls-2{mix-blend-mode:multiply;}.cls-3{fill:#d3ebf0;}.cls-4{fill:#008f76;}.cls-5{fill:#089e89;}.cls-6{fill:#00ae97;}.cls-7{fill:#44b8ad;}.cls-8{fill:#f5f5f5;}.cls-9{fill:#f29493;}.cls-10{fill:#df4d49;}.cls-11{fill:#050a0f;}.cls-12{fill:#141c23;}.cls-13{fill:#dbd9d6;}.cls-14,.cls-16{fill:#cec9c6;}.cls-15{fill:#26254d;}.cls-17{fill:#f5fafa;}.cls-18{fill:#061217;}.cls-19{fill:#bbb4af;}.cls-20{fill:#3cb39f;}</style></defs><title>fifth-refreshtable</title><g class="cls-1"><g id="katman_2" data-name="katman 2"><g id="Capa_1" data-name="Capa 1"><g class="cls-2"><rect class="cls-3" x="721" y="810.87" width="149" height="796"/><rect class="cls-3" x="407" y="1128.87" width="177" height="478"/><polygon class="cls-3" points="407 1606.87 176 1606.87 176 1159.45 291.5 1078.94 407 1159.45 407 1606.87"/><polygon class="cls-3" points="1663 1606.87 1432 1606.87 1432 1159.45 1547.5 1078.94 1663 1159.45 1663 1606.87"/><rect class="cls-3" x="1046" y="1022.87" width="137" height="584"/><rect class="cls-3" x="584" y="992.87" width="137" height="614"/><polygon class="cls-3" points="1018 1066.87 1018 927.87 984 927.87 984 845.87 932 845.87 932 927.87 898 927.87 898 1066.87 870 1066.87 870 1606.87 1046 1606.87 1046 1066.87 1018 1066.87"/><polygon class="cls-3" points="1393 1142.87 1393 910.67 1307.5 850.94 1222 910.67 1222 1142.87 1183 1142.87 1183 1606.87 1432 1606.87 1432 1142.87 1393 1142.87"/><polygon class="cls-3" points="1812 924.87 1812 858.87 1778 858.87 1778 812.73 1754 793.65 1754 754.87 1749 754.87 1749 793.74 1725 812.87 1725 858.87 1691 858.87 1691 924.87 1663 924.87 1663 1606.87 1840 1606.87 1840 924.87 1812 924.87"/><polygon class="cls-3" points="148 992.87 148 842.87 115 842.87 115 796.73 91 777.64 91 738.87 86 738.87 86 777.72 62 796.87 62 842.87 28 842.87 28 992.87 0 992.87 0 1606.87 177 1606.87 177 992.87 148 992.87"/></g><path class="cls-4" d="M662.77,1612.87H852c-13.49-6.53-19.8-32.85-13.59-49,4.35-11.29,24-34.15,15.18-45.63-10.12-13.1-47.08,7.33-53.42-2.27-6.8-10.31,24.35-28.61,27.56-37.94,10.38-30-58.79,11.9-45-36.53,2.58-9,14.25-35.46,1.39-43.13-9.5-5.67-18.45,8.75-25.38,13.36-.65-.61-2.11-2.3-2.7-2.77-11.11-8.86,9.3-110.85-33.83-65.14-31.77,33.68-16.17,94-22.84,135.59-3.32,20.63-6.21,10.89-21.65,10.81-19-.12-25.42,24.27-29.43,39.87-7.2,27.89,0,55.08,12.93,80C661.66,1610.91,662.17,1611.84,662.77,1612.87Z"/><path class="cls-4" d="M434.91,1612.87c5.15-13.2,5.07-31.61,9.13-43.35,5.88-17,16.51-38.17,5.79-55.18-9.07-14.39-32.14-10.59-38.87-26.12-7.55-17.38,11.91-63.22-22-55.48-17.22,3.92-24.13,11.15-26.2-12.35-1.12-12.77,3.09-31.13-6.89-41.38-19.61-20.11-48.45,8.88-49.7,29.41-1.39,23.06,9.39,59.61-21.68,58-12.63-.63-18.28-4.35-28,7.18-8.19,9.75-7.43,22-6.86,33.45s5.48,24.62,2.9,36.27c-3.08,13.83-15,18-22.2,28.66-8.13,12-7.33,29.54.69,40.85Z"/><path class="cls-5" d="M705.55,1612.87c1.53-4.87-.35-10.31-5.09-14.44-5.52-4.82-9.47-7-12-14.48-2-5.82.14-13.56-2.44-18.87-6.27-12.91-27-5-35.53-16.55-6.94-9.38,1.19-23.77-4.09-34.34-12.19-24.37-36.89-3.59-53.65-2-8.88.87-13.64-6.22-22.52-5.13-10.36,1.27-18.37,9.5-23.51,17.84-11.5,18.68-7.08,44.36-26.21,55.11-15.82,8.88-13.53,19.46-7.48,32.83Z"/><path class="cls-5" d="M522.12,1612.87a43.19,43.19,0,0,0,1-8.87c-.94-21.85-12-28.53-32.62-33.48-23.75-5.7-40.15-.33-52.25-24-7.46-14.62-9.37-31.48-23.13-41.85-13.22-10-26.78-11.19-41.79-8.18-21.91,4.39-17.17,2-35.22-10.5-31-21.42-54.73-.33-74.9,22.21-22.24,24.83-51.56,27-78,43.55-15.38,9.61-36.72,42-26.6,61.12Z"/><path class="cls-6" d="M395.4,1612.87H547.54c-.16-.94-.3-1.93-.42-3-1.71-16.35,4.18-32.68,2.9-49.31-1.23-15.93-8.38-24.4-14.12-38.6-5.27-13-.95-30.76-11.92-40.63-11.55-10.4-22.22-3.58-27.63-18.91-2.2-6.23,5.84-9.7-4.27-14.12-4.6-2-13.42,2-17.39,4.34-18.62,11.15-21,34.93-29.28,52.94-8.75,19-21.65,29.6-37.34,42.29-14.44,11.68-22.58,22.81-20.36,42.41C388.7,1598.93,391.77,1606.07,395.4,1612.87Z"/><path class="cls-5" d="M804.31,1612.87H931c-5.11-3.33-7.76-5.35-8.7-14.4-1.41-13.43,3.42-26.84,2.37-40.5-1-13.06-6.88-20-11.6-31.68-4.32-10.7-.77-25.25-9.78-33.35-9.48-8.53-18.24-3-22.68-15.53-1.8-5.11,4.8-8-3.5-11.59-3.78-1.65-11,1.62-14.28,3.57-15.28,9.14-17.25,28.67-24,43.46-7.17,15.64-17.76,24.29-30.64,34.72-11.86,9.58-18.54,18.72-16.71,34.81C792.79,1594.61,799.2,1603.11,804.31,1612.87Z"/><path class="cls-6" d="M847.42,1612.87c-.71-14.7-8.24-19.22-22.19-22.58-16.18-3.88-27.34-.22-35.58-16.35-5.09-10-6.39-21.43-15.76-28.48-9-6.79-18.23-7.63-28.46-5.58-14.91,3-11.69,1.34-24-7.15-21.11-14.59-37.26-.23-51,15.12-15.14,16.91-35.1,18.39-53.11,29.65-8.93,5.59-20.82,22.44-19.85,35.37Z"/><path class="cls-4" d="M1415.12,1612.87h189.25c-13.5-6.53-19.8-32.85-13.59-49,4.35-11.29,24-34.15,15.18-45.63-10.12-13.1-47.08,7.33-53.42-2.27-6.8-10.31,24.35-28.61,27.56-37.94,10.38-30-58.79,11.9-45-36.53,2.58-9,14.24-35.46,1.38-43.13-9.5-5.67-18.46,8.75-25.38,13.36-.65-.61-2.12-2.3-2.7-2.77-11.11-8.86,9.31-110.85-33.83-65.14-31.78,33.68-16.18,94-22.85,135.59-3.31,20.63-6.2,10.89-21.64,10.81-19-.12-25.42,24.27-29.43,39.87-7.19,27.89,0,55.08,12.93,80C1414,1610.91,1414.54,1611.84,1415.12,1612.87Z"/><path class="cls-4" d="M1187.27,1612.87c5.14-13.2,5.07-31.61,9.13-43.35,5.87-17,16.51-38.17,5.78-55.18-9.06-14.39-32.13-10.59-38.87-26.12-7.54-17.38,11.92-63.22-22-55.48-17.23,3.92-24.13,11.15-26.2-12.35-1.12-12.77,3.09-31.13-6.89-41.38-19.62-20.11-48.44,8.88-49.69,29.41-1.39,23.06,9.39,59.61-21.7,58-12.62-.63-18.27-4.35-27.95,7.18-8.19,9.75-7.43,22-6.86,33.45s5.48,24.62,2.9,36.27c-3.08,13.83-15,18-22.2,28.66-8.13,12-7.33,29.54.7,40.85Z"/><path class="cls-5" d="M1457.91,1612.87c1.53-4.87-.35-10.31-5.09-14.44-5.53-4.82-9.47-7-12-14.48-2-5.82.14-13.56-2.44-18.87-6.27-12.91-27-5-35.54-16.55-6.93-9.38,1.21-23.77-4.08-34.34-12.19-24.37-36.89-3.59-53.64-2-8.89.87-13.65-6.22-22.52-5.13-10.38,1.27-18.37,9.5-23.52,17.84-11.51,18.68-7.08,44.36-26.21,55.11-15.82,8.88-13.54,19.46-7.48,32.83Z"/><path class="cls-5" d="M1274.49,1612.87a43.77,43.77,0,0,0,1-8.87c-.93-21.85-12-28.53-32.63-33.48-23.75-5.7-40.14-.33-52.23-24-7.48-14.62-9.38-31.48-23.15-41.85-13.2-10-26.78-11.19-41.79-8.18-21.9,4.39-17.17,2-35.22-10.5-31-21.42-54.71-.33-74.89,22.21-22.23,24.83-51.56,27-78,43.55-15.38,9.61-36.71,42-26.6,61.12Z"/><path class="cls-6" d="M1147.75,1612.87H1299.9c-.16-.94-.3-1.93-.42-3-1.71-16.35,4.19-32.68,2.9-49.31-1.23-15.93-8.38-24.4-14.12-38.6-5.27-13-1-30.76-11.91-40.63-11.57-10.4-22.24-3.58-27.64-18.91-2.19-6.23,5.84-9.7-4.26-14.12-4.61-2-13.43,2-17.39,4.34-18.63,11.15-21,34.93-29.3,52.94-8.74,19-21.64,29.6-37.34,42.29-14.43,11.68-22.57,22.81-20.35,42.41C1141.06,1598.93,1144.13,1606.07,1147.75,1612.87Z"/><path class="cls-5" d="M1556.67,1612.87h126.68c-5.12-3.33-7.76-5.35-8.71-14.4-1.41-13.43,3.42-26.84,2.37-40.5-1-13.06-6.88-20-11.59-31.68-4.32-10.7-.78-25.25-9.79-33.35-9.48-8.53-18.24-3-22.67-15.53-1.81-5.11,4.78-8-3.51-11.59-3.77-1.65-11,1.62-14.28,3.57-15.28,9.14-17.26,28.67-24,43.46-7.18,15.64-17.77,24.29-30.65,34.72-11.86,9.58-18.53,18.72-16.71,34.81C1545.14,1594.61,1551.55,1603.11,1556.67,1612.87Z"/><path class="cls-6" d="M1599.78,1612.87c-.7-14.7-8.23-19.22-22.19-22.58-16.17-3.88-27.34-.22-35.59-16.35-5.08-10-6.37-21.43-15.75-28.48-9-6.79-18.23-7.63-28.46-5.58-14.92,3-11.7,1.34-24-7.15-21.11-14.59-37.25-.23-51,15.12-15.14,16.91-35.1,18.39-53.12,29.65-8.92,5.59-20.82,22.44-19.85,35.37Z"/><path class="cls-7" d="M107.6,1607.87c-8.75,1.57-17.45,3.2-26,5-9.77,45.67,24.79,55.8,79.19,68.77,67.55,16.09,76.25,22,106.9,65.51,49.49,70.23,105,123.08,233.85,125.8,69.68,1.46,108.52,3.82,165.7,31.58,41.58,20.2,71.87,43.82,121.59,55.32,105.15,24.31,237.06,20.08,302.32-46.73,48.05-49.19,80-80.75,178.89-83.73,86.4-2.6,179.17,8.51,232-52,58.44-67,8.61-85.29,133.71-109.58,43-8.35,103.83-33.8,123.71-59.89Z"/><path class="cls-8" d="M850.22,603.91c52.14,8.62,111-.23,164.48,1.39,28.92.88,58,1,86.8.3,16.42-.43,42.41,4,57.36-1.7-2-13.06,6.47-26.32,1.73-40.06-5.71-16.58-22.17-24.09-38.42-25.06-14.84-.88-30.88,7.09-45.11,5.07s-18.29-14.27-27.26-24.44c-19.38-22-59.91-57.34-91.25-38.16-12.29,7.52-11.32,19.44-18.24,28.85-7.85,10.68-20.22,10.86-32.79,12.54-17.21,2.3-25.91,5.61-35.54,18.32-10.7,14.12-15.81,14-34.32,14.62-25.69.92-57.37,24.09-62.32,50.71a28.49,28.49,0,0,1,18.17-.78Z"/><path class="cls-8" d="M277,509.32c52.14,8.62,111-.23,164.49,1.39,28.92.88,58,1,86.78.3,16.43-.43,42.42,4,57.37-1.71-2-13.05,6.47-26.31,1.73-40.05-5.71-16.58-22.18-24.09-38.42-25.06-14.84-.88-30.88,7.09-45.11,5.07S485.51,435,476.54,424.82c-19.38-22-59.91-57.34-91.26-38.16C373,394.18,374,406.09,367.05,415.51c-7.85,10.68-20.22,10.86-32.79,12.54-17.21,2.3-25.91,5.61-35.54,18.32-10.7,14.12-15.81,14-34.32,14.62-25.69.92-57.37,24.08-62.32,50.71a28.55,28.55,0,0,1,18.17-.79Z"/><path class="cls-8" d="M1049.72,376.06c69.24,11.46,147.42-.3,218.44,1.85,38.41,1.16,77,1.38,115.25.39,21.82-.56,56.34,5.32,76.19-2.26-2.62-17.33,8.58-35,2.29-53.2-7.58-22-29.45-32-51-33.27-19.7-1.17-41,9.42-59.91,6.74-19.07-2.7-24.28-18.95-36.2-32.47-25.74-29.19-79.56-76.14-121.18-50.67-16.32,10-15,25.81-24.22,38.31-10.43,14.19-26.85,14.42-43.54,16.65-22.85,3.06-34.42,7.45-47.21,24.34-14.21,18.75-21,18.53-45.57,19.41-34.11,1.22-76.19,32-82.76,67.34a38,38,0,0,1,24.14-1Z"/><path class="cls-9" d="M721.34,695.45c-16-18.14-115.22-74.27-94.77-103.48S749,646.33,766.15,655.32c16.45,8.61,42,26.34,47.36,46.77,2.68,10.19-5.21,28.32-16.48,30.22C784.07,734.5,761.6,741.2,721.34,695.45Z"/><path class="cls-9" d="M649.62,568.48c-6.42-13.76-44.85-66.75-46.43-108-.36-9.4-22,6-22,6-1,16.23,12.21,86.12,25.37,113,6.22,12.7,25.66,51.73,40.49,43C664.2,612.4,659.16,588.9,649.62,568.48Z"/><path class="cls-9" d="M581.15,466.48c.15,1.25,3.67,6,11.9,4.19s10.14-10.19,10.14-10.19c.88-9.08,5.47-7.76,7.87-22.13.85-5.09,12.57-21.48,12.57-21.48s-7.56-4.67-16.68,9.38c6-22.52,15.82-39.54,10.59-42-23.57-10.56-45.23,22.85-44.8,43C573,439,578.63,446.1,581.15,466.48Z"/><path class="cls-10" d="M683.18,674.43c45.11,33.17,78.06,64.81,114.75,58.56,10.69-1.82,23.12-19.55,16.61-37.86-6-16.91-51.11-49.64-94.83-76.64C707.84,632.53,689.18,656.86,683.18,674.43Z"/><path class="cls-9" d="M795.66,1577.27a404.08,404.08,0,0,1,2-40.4H773c1.82,19.6,3.23,34.43,3.92,41.63-3.22,6.78-23.61,11.34-28.85,13.21-3.11,1.11-12.09,4.66-9,8.26,3.8,4.38,19.69,5.93,29.68,2.54,8.45-2.86,19.93-2,24.92-4.49s6-5.65,5.55-9.75C798.83,1584.92,796.52,1582.63,795.66,1577.27Z"/><path class="cls-9" d="M1126.77,1463.89c-9.94-10-19-20-27.51-29.92l-17.67,16.93c19.71,16.65,32.4,27.28,32.41,27.29,1.66,7.43-9.42,24.11-11.84,29-1.48,3-5.5,11.74-.77,12.17,5.78.55,18.32-9.33,23.19-18.7,4.12-7.9,13-15.2,14.87-20.49s.44-8.25-2.72-10.87C1134.2,1467.17,1130.22,1466.66,1126.77,1463.89Z"/><path class="cls-11" d="M797.74,1569.87c1.31-19.78,8.83-165.57,1.58-228.93-2.64-23-21.19-58.78-21.1-69.5.08-12.79-21.32-44.31-34.1-39-11.26,4.65-40.66,30.63-40.25,40.38l70,297.09Z"/><path class="cls-11" d="M871.78,939.65l-101.89-5.89c-6.07,103.51-74.81,265.33-66,339.27,10.74,40.07,69.79,41.6,68.72,30.1C773.61,1232.09,897.12,1052.79,871.78,939.65Z"/><path class="cls-12" d="M1123.33,1457.54c-12.75-15.19-81.94-139.83-131-180.53-17.87-14.83-29.85-18.17-55-45-8.74-9.33-50.16-4.87-55.74,7.78-4.91,11.15-.38,46.19,6.67,52.94,62.82,60.29,217.47,181.62,217.47,181.62Z"/><path class="cls-12" d="M957.16,921.85s-19.23,9-80.46,11.63c-50.07,2.19-106.81.28-106.81.28s93.17,71.76,93.17,71.78c11.73,147.53,4.86,193.55,13.64,267.49,10.74,40.06,70.25,41.6,69.19,30.1C946.89,1232.09,981.17,1029,957.16,921.85Z"/><path class="cls-11" d="M953.86,903.21C863.66,926.83,770,914,770,914v19.75c114.72,15.63,187.32-11.91,187.32-11.91Z"/><path class="cls-13" d="M780.24,1600.58c-7.88-1.37-9.24,3.26-29.12,4.11s-26.74-6.66-26.74-6.66a4.06,4.06,0,0,0,1,2.4c5.2,7,16.33,7.3,23.88,7.66,9.48.44,48,1.5,53.13-4.77,1-1.18-.64-4.15-1.35-6.44l.26-1.77A27,27,0,0,1,780.24,1600.58Z"/><path class="cls-12" d="M751.12,1604.69c19.88-.85,21.24-5.48,29.12-4.11a27,27,0,0,0,21-5.46c.93-7.63-1.73-8.59-1.54-10.77.16-1.83-.59-5.49-3.44-6,0,0,1.11,3.14-8.9,5.32s-11.07-4.52-11.92-9.58c-1-6.1-9.32,3.94-14.08,7.42a90.66,90.66,0,0,1-14.7,8.17,39.43,39.43,0,0,1-13.46,3.93c-2.87.3-8.77,1.31-8.82,4.4C724.39,1598,731.24,1605.55,751.12,1604.69Z"/><path class="cls-13" d="M1131.76,1491.64c-6.64,4.46-4.42,8.75-18.18,23.13s-23.9,13.68-23.9,13.68a4,4,0,0,0,2.35,1.09c8.57,1.44,16.84-6,22.53-11,7.15-6.24,35.69-32.13,35-40.22-.11-1.53-3.34-2.55-5.43-3.71l-1-1.45A27.05,27.05,0,0,1,1131.76,1491.64Z"/><path class="cls-12" d="M1113.58,1514.77c13.76-14.38,11.54-18.67,18.18-23.13a27.1,27.1,0,0,0,11.39-18.47c-4.62-6.15-7.2-5-8.58-6.72-1.15-1.42-4.23-3.55-6.62-1.93,0,0,3,1.49-2.74,10s-11.11,4.39-15.24,1.32c-5-3.69-4,9.3-5,15.11A89.77,89.77,0,0,1,1100,1507a39.69,39.69,0,0,1-7,12.17c-1.86,2.18-5.41,7-3.31,9.26C1089.68,1528.45,1099.83,1529.14,1113.58,1514.77Z"/><path class="cls-9" d="M864.22,648.27c-7.34-12.57-10.42-26.2-14.91-39.85-7-21.22-9.75-40.95-8.58-64.51-20.68,13.47-50.45,40.93-50.45,40.93,24,47.86,14,91.26,11.12,100.74,19.45,6.87,57.61,27.78,74.66-19.17C871.86,660.49,867.84,654.48,864.22,648.27Z"/><path class="cls-14" d="M849.31,608.42c-7-21.22-9.75-40.95-8.58-64.51-20.68,13.47-50.45,40.93-50.45,40.93A147.06,147.06,0,0,1,797,600.27c16.22,4.89,36.16-11.74,39.14-3.37,1.58,4.43,20.15,30.83-14.51,54-10,6.68,29.92,4.8,32.81-3.83A70.32,70.32,0,0,0,857.55,634C854.41,625.64,852.13,617,849.31,608.42Z"/><path class="cls-9" d="M858.89,516.77c-4.25,66.56-61.55,93.5-91,79.91-39.11-18-42.32-57.31-42.7-101.36-.33-38.35,57.32-62.94,98.35-49.85S861.63,473.8,858.89,516.77Z"/><path class="cls-10" d="M747.39,985s23,21.73,102.81,10.63,129.36-8.75,129.36-8.75,42-113.89-9.74-310.9c-2.4-9.14-27.38-64.42-27.38-64.42-7.73,1.37-80.32,10.52-90.68,4.69,0,0,10.94,30.12-16.66,36.44s-30.46-21.48-30.46-21.48c-2.83,6.78-42.94,23.56-49.81,27.13-6,3.1-24.06,19.84-13.57,69.93S773.58,903.21,747.39,985Z"/><path class="cls-9" d="M987.91,625.16c3.37-23.93,53.26-127.65,20.12-140.82S935.63,597,926.22,614c-9,16.24-20.61,45.1-13.86,65.11,3.37,10,19.91,20.8,30.37,16.2C954.76,690,979.42,685.5,987.91,625.16Z"/><path class="cls-9" d="M975.85,477.38c-2.19-15,.79-80.41-20.56-115.75-4.86-8.05,21.72-7.1,21.72-7.1,9.79,13,37.13,78.67,40.92,108.38,1.78,14,6.73,56.1-10.44,56.95C987.56,520.86,979.11,499.69,975.85,477.38Z"/><path class="cls-9" d="M977,354.53c.56,1.13.22,7-7.64,10.05s-14.08-2.95-14.08-2.95c-5.72-7.1-8.83-3.48-18.72-14.16-3.51-3.78-22.33-11-22.33-11s3.77-8.05,19.1-1.33c-17.38-15.52-34.94-24.34-31.91-29.24,13.9-21.78,50.35-5.76,61.09,11.33C968.72,327.05,967.93,336.12,977,354.53Z"/><path class="cls-10" d="M980.88,586.89c-8.78-5.4-18-10.09-28-12.8A53.62,53.62,0,0,0,939,572c-18.46,43.94-33.65,69.76-31.26,100.82,1.11,14.4,22.8,30.38,40.7,24.26,33.07-11.33,42.76-52.67,55.93-96.14C999.19,597.06,986.37,590.26,980.88,586.89Z"/><path class="cls-15" d="M857.89,549.24c14-36.43,22.81-66.07-12.91-106.62-23.58-26.77-57.23-30.23-94.72-4.64-11-23.56-59.63-8.56-60.31,36.76-.37,24.22,11.57,52.26,38.83,68.9-3.27-31.56,1.4-44.59,26.57-41.09,32.69,4.54,34.89-30.89,54.77-5.08,5.81,7.53,7.34,21.85,15.22,24.81,7.7,2.89,1.16-7.11,8.23-9.7,22.69-8.29-1.2,15.65.37,32.89s9.49,23.73,9.49,23.73S851.19,566.68,857.89,549.24Z"/><path class="cls-9" d="M825.34,522.28c5.21,3.3,3.73-4.37,5.34-7.66,1.16-2.36,2.73-4.73,5.21-5.94a10.45,10.45,0,0,1,14.21,4.56,13.16,13.16,0,0,1-2.71,15.68c-3.22,3.1-10.51,7-14.36,3.81Z"/><g class="cls-2"><path class="cls-16" d="M833.35,524.39a12,12,0,0,0,5.83-4.18,15.83,15.83,0,0,0,2.07-3.06,10.18,10.18,0,0,0,.63-1.78,7,7,0,0,0,.12-1.83.26.26,0,0,0-.49-.13,15.08,15.08,0,0,0-.9,1.35c-.27.49-.52,1-.77,1.48a20.75,20.75,0,0,1-1.57,3.08,11.75,11.75,0,0,1-5.14,4.27c-.48.19-.3,1,.22.8Z"/><path class="cls-16" d="M836,523.2a2.83,2.83,0,0,0,1.08-.4,9.07,9.07,0,0,1,1-.44,8,8,0,0,1,2.11-.41,11.68,11.68,0,0,1,2.29,0c.71.09,1.7.25,2.28-.28a.5.5,0,0,0,.13-.48c-.29-.89-1.53-1.13-2.33-1.19a9.6,9.6,0,0,0-2.62.15,12.67,12.67,0,0,0-2.3.84,10.12,10.12,0,0,0-1.13.59,2.33,2.33,0,0,0-1,.84.54.54,0,0,0,.45.8Z"/></g><path class="cls-17" d="M762.94,565.92a88.32,88.32,0,0,1,17-5.81,121.9,121.9,0,0,1,19.3-2.56s-.17,17.59-14.64,20.92C769.93,581.85,762.94,565.92,762.94,565.92Z"/><path class="cls-18" d="M749.6,536.18a3.4,3.4,0,1,1-3.26-3.51A3.4,3.4,0,0,1,749.6,536.18Z"/><path class="cls-18" d="M798.65,523.55a3.39,3.39,0,1,1-3.27-3.53A3.39,3.39,0,0,1,798.65,523.55Z"/><path class="cls-15" d="M790.32,517c.25-.26.5-.51.77-.74,0,0,.39-.31.2-.17s.23-.15.28-.18a6.33,6.33,0,0,1,.76-.45l.42-.2c-.24.11-.16.07,0,0a10.25,10.25,0,0,1,1.62-.45c-.23,0-.22,0,0,0l.35,0a7.86,7.86,0,0,1,.84,0c.33,0-.19-.07,0,0s.28.05.41.08a4.27,4.27,0,0,1,.72.21c.06,0,.46.2.12,0l.3.15a5.26,5.26,0,0,1,.65.38s.38.29.13.08l.31.27c.17.16.35.31.53.45a4,4,0,0,0,1.56,1,.81.81,0,0,0,1-.55c.55-1.33-.61-2.89-1.58-3.7a8.27,8.27,0,0,0-3.67-1.83,8.46,8.46,0,0,0-4.38.19,10.31,10.31,0,0,0-4.07,2.73,1.92,1.92,0,0,0,2.71,2.71Z"/><path class="cls-15" d="M747.89,524.57a7.77,7.77,0,0,0-4.43,0,9.77,9.77,0,0,0-3.63,2.3,10.66,10.66,0,0,0-2.18,2.94c-.5,1-.82,2.66.29,3.44a.81.81,0,0,0,.8,0,1.79,1.79,0,0,0,.62-.51c.06-.09.37-.49.13-.21a11,11,0,0,0,.86-1.2l.21-.32c.06-.07.28-.34,0,0,.15-.18.29-.35.45-.52s.36-.37.55-.55l.32-.28c.08-.06.35-.33,0,0a6,6,0,0,1,1.32-.83l.39-.19c.34-.16-.36.12,0,0l.71-.22a7.06,7.06,0,0,1,.79-.21l.18,0-.14,0a1.63,1.63,0,0,0,.38,0c.26,0,.51,0,.77,0s-.38-.09,0,0l.52.12a1.91,1.91,0,1,0,1-3.69Z"/><g class="cls-2"><path class="cls-19" d="M770.23,545.83a6.13,6.13,0,0,0,.32,5.06,5.53,5.53,0,0,0,4.11,2.43,5.73,5.73,0,0,0,7-5.61,5.72,5.72,0,0,1-1.53,5.38,7,7,0,0,1-5.64,1.63,6.48,6.48,0,0,1-4.87-3.32A5.73,5.73,0,0,1,770.23,545.83Z"/></g><path class="cls-20" d="M618.88,192.87H593v.65c-.26-72.8,57.83-134,131.91-133.7a131.56,131.56,0,0,1,92.93,38.6L861,56.82A191,191,0,0,0,724.91,0C618.73,0,532.66,86.7,532.51,193.87H506.07c-16.2-.17-22.82,10.66-14.72,23.92l56.4,55.91c11.19,11.19,17.92,11.53,29.45,0l56.4-55.91C641.7,204.54,635.06,193.73,618.88,192.87Zm342.9-22.41-56.4-55.79c-11.5-11.5-18.62-10.82-29.43,0l-56.41,55.79c-8.1,13.23-1.49,24.06,14.71,23.41h26.09c-.41,73-58.31,133.68-132.13,133.34a131.61,131.61,0,0,1-92.94-38.55l-43.12,41.55a191.23,191.23,0,0,0,136.06,56.73c105.85,0,191.68-86.08,192.37-192.07h26.48C963.27,194.52,969.88,183.67,961.78,170.46Z"/></g></g></g></svg>