<svg xmlns="http://www.w3.org/2000/svg" xmlns:xlink="http://www.w3.org/1999/xlink" viewBox="0 0 376 324.07"><defs><style>.cls-1{isolation:isolate;}.cls-2{fill:#1ae5ff;}.cls-3{opacity:0.57;}.cls-4{fill:#fff;}.cls-5{fill:url(#linear-gradient);}.cls-6{fill:url(#linear-gradient-2);}.cls-7{fill:url(#linear-gradient-3);}.cls-8{fill:url(#linear-gradient-4);}.cls-9{fill:#f9fbfc;}.cls-10{fill:url(#linear-gradient-5);}.cls-11{fill:#cfe3ff;}.cls-12{fill:url(#linear-gradient-6);}.cls-13{fill:url(#linear-gradient-7);}.cls-14{fill:#ff9d6f;}.cls-15,.cls-28{opacity:0.21;mix-blend-mode:multiply;}.cls-15{fill:url(#linear-gradient-8);}.cls-16{fill:#113c7a;}.cls-17{fill:url(#linear-gradient-9);}.cls-18{fill:#ff7c40;}.cls-19{fill:url(#linear-gradient-10);}.cls-20{fill:url(#linear-gradient-11);}.cls-21{fill:#843837;}.cls-22{fill:#cfdae4;}.cls-23{opacity:0.67;}.cls-24{opacity:0.53;}.cls-25{fill:url(#linear-gradient-12);}.cls-26{opacity:0.46;}.cls-27{fill:url(#linear-gradient-13);}.cls-29{fill:url(#linear-gradient-14);}.cls-30{fill:#5155d4;}.cls-31{fill:#343996;}.cls-32{fill:#ff3d9d;}</style><linearGradient id="linear-gradient" x1="20" y1="154.71" x2="35" y2="154.71" gradientUnits="userSpaceOnUse"><stop offset="0" stop-color="#cc68ff"/><stop offset="1" stop-color="#fb8e31"/></linearGradient><linearGradient id="linear-gradient-2" x1="44.51" y1="275" x2="86.62" y2="-37.96" gradientTransform="matrix(-1, 0, 0, 1, 305.15, 0)" gradientUnits="userSpaceOnUse"><stop offset="0" stop-color="#1ae5ff"/><stop offset="0.26" stop-color="#64e8f9"/><stop offset="0.7" stop-color="#eaeeee"/></linearGradient><linearGradient id="linear-gradient-3" x1="-41.19" y1="191.76" x2="-25.31" y2="191.76" gradientTransform="matrix(-1, 0, 0, 1, 305.15, 0)" gradientUnits="userSpaceOnUse"><stop offset="0" stop-color="#5155d4"/><stop offset="1" stop-color="#45f7ff"/></linearGradient><linearGradient id="linear-gradient-4" x1="127" y1="138.08" x2="340" y2="138.08" gradientUnits="userSpaceOnUse"><stop offset="0" stop-color="#7f5eff"/><stop offset="0.24" stop-color="#8665ff"/><stop offset="0.6" stop-color="#9978ff"/><stop offset="0.94" stop-color="#b391ff"/></linearGradient><linearGradient id="linear-gradient-5" x1="229.17" y1="51.28" x2="240.07" y2="189.94" gradientTransform="matrix(1, 0, 0, 1, 0, 0)" xlink:href="#linear-gradient-3"/><linearGradient id="linear-gradient-6" x1="223.5" y1="157.07" x2="223.5" y2="204.94" xlink:href="#linear-gradient-4"/><linearGradient id="linear-gradient-7" x1="476.07" y1="207.9" x2="505.15" y2="182.56" gradientTransform="matrix(-1, 0, 0, 1, 641.1, 0)" xlink:href="#linear-gradient-2"/><linearGradient id="linear-gradient-8" x1="40.82" y1="303.07" x2="111.82" y2="303.07" gradientTransform="translate(94.18)" xlink:href="#linear-gradient-3"/><linearGradient id="linear-gradient-9" x1="479.53" y1="274.63" x2="472.98" y2="137.88" gradientTransform="matrix(-1, 0, 0, 1, 641.1, 0)" xlink:href="#linear-gradient-2"/><linearGradient id="linear-gradient-10" x1="458.91" y1="272.17" x2="452.36" y2="135.42" gradientTransform="matrix(-1, 0, 0, 1, 641.1, 0)" xlink:href="#linear-gradient-2"/><linearGradient id="linear-gradient-11" x1="443.81" y1="222.8" x2="440.41" y2="196.87" gradientTransform="matrix(-1, 0, 0, 1, 641.1, 0)" xlink:href="#linear-gradient-2"/><linearGradient id="linear-gradient-12" x1="162.12" y1="128.5" x2="189.77" y2="75.78" xlink:href="#linear-gradient"/><linearGradient id="linear-gradient-13" x1="469.71" y1="225.05" x2="524.4" y2="175.87" gradientTransform="translate(-454.15)" gradientUnits="userSpaceOnUse"><stop offset="0" stop-color="#92f3ff"/><stop offset="1" stop-color="#fff"/></linearGradient><linearGradient id="linear-gradient-14" x1="44.05" y1="274.44" x2="117.07" y2="274.44" gradientTransform="translate(0.78 -0.23) rotate(0.16)" xlink:href="#linear-gradient-3"/></defs><title>Varlık 1</title><g class="cls-1"><g id="katman_2" data-name="katman 2"><g id="OBJECTS"><path class="cls-2" d="M299.7,269.12a5.88,5.88,0,0,1,2.67,4.61c0,1.7-1.21,2.39-2.68,1.54l-24.27-14a5.86,5.86,0,0,1-2.67-4.61c0-1.7,1.21-2.38,2.68-1.53Z"/><g class="cls-3"><path class="cls-2" d="M0,121.28.19,190c0,4.39,3.14,6.19,7,4l40.94-23.63A6.48,6.48,0,0,0,51,165.3l-.19-68.73c0-4.4-3.14-6.2-7-4L2.92,116.2A6.48,6.48,0,0,0,0,121.28Z"/></g><path class="cls-4" d="M8,142.57v3.61c0,.56.4.78.88.51l33.24-19.2A1.91,1.91,0,0,0,43,126v-3.61c0-.56-.4-.79-.88-.51L8.86,141.07A1.92,1.92,0,0,0,8,142.57Z"/><path class="cls-4" d="M8,150.55v3.62c0,.55.39.77.87.5l33.26-19.2A1.94,1.94,0,0,0,43,134v-3.62c0-.55-.4-.78-.88-.5L8.87,149A1.94,1.94,0,0,0,8,150.55Z"/><path class="cls-5" d="M20,158.62v.84c0,1.31.94,1.85,2.07,1.19L33,154.37a4.56,4.56,0,0,0,2-3.57V150c0-1.31-.94-1.85-2.07-1.19l-10.88,6.28A4.56,4.56,0,0,0,20,158.62Z"/><path class="cls-6" d="M144.69,1.42l-.33-.18L143.94,1l-.42-.2-.41-.18c-.15-.05-.28-.11-.42-.15l-.08,0h0l-.31-.1-.43-.12-.42-.09L141,.06l-.31,0h-.15A4.1,4.1,0,0,0,140,0l-.54,0a3.81,3.81,0,0,0-.59.08h0a5,5,0,0,0-.69.19,4,4,0,0,0-.84.39l-6.86,4A5.07,5.07,0,0,1,132,4.11h0A6.2,6.2,0,0,1,133.76,4h0a8.42,8.42,0,0,1,1.92.42h0a11.24,11.24,0,0,1,2.08,1L325.38,114l6.86-4Z"/><path class="cls-7" d="M346.34,129.45c0-.17,0-.33,0-.5s0-.34,0-.5,0-.34,0-.51-.05-.35-.07-.52v0h0c0-.16,0-.33-.08-.49s-.06-.36-.1-.54-.07-.37-.11-.55-.09-.36-.14-.55-.07-.28-.11-.42v0a.19.19,0,0,1,0-.08c-.06-.18-.11-.36-.16-.54s-.11-.35-.17-.53l-.18-.5c-.06-.17-.12-.34-.19-.5l-.15-.39v0l0-.09-.21-.5c-.08-.18-.16-.36-.25-.54s-.19-.42-.29-.62l-.34-.66-.06-.11a.91.91,0,0,1-.07-.14c-.23-.41-.47-.82-.71-1.22s-.4-.63-.61-.94l-.42-.6c-.12-.17-.25-.33-.37-.49l-.37-.47-.37-.44-.08-.09,0,0-.28-.33-.41-.43-.42-.42-.42-.4-.22-.19-.05,0-.16-.14-.42-.35-.42-.32-.4-.29-.41-.27-.09-.06-6.35,4a14.84,14.84,0,0,1,1.91,1.43l.05,0a19.68,19.68,0,0,1,1.75,1.78l0,0a23.82,23.82,0,0,1,3,4.38l.06.12a23.84,23.84,0,0,1,1.13,2.4v0a24.57,24.57,0,0,1,.87,2.54v0a19.36,19.36,0,0,1,.55,2.55h0a16.6,16.6,0,0,1,.19,2.51l-.34,130.93a12.75,12.75,0,0,1-.2,2.23v.07a9.25,9.25,0,0,1-.54,1.82,0,0,0,0,0,0,0,6.36,6.36,0,0,1-.72,1.2c-.09.12-.17.25-.27.36a4.79,4.79,0,0,1-1,.93l6.34-4a4.89,4.89,0,0,0,1.05-.94c.09-.11.17-.23.26-.35s.24-.29.35-.46a7.86,7.86,0,0,0,.36-.71V265l.21-.52c.06-.18.11-.36.16-.54s.09-.35.13-.53a2.23,2.23,0,0,0,0-.23v-.06c0-.08,0-.15.05-.22l.06-.5c0-.16,0-.32,0-.49l0-.49c0-.17,0-.33,0-.5v0l.34-130.93Z"/><path class="cls-8" d="M329.67,116c5.73,3.3,10.35,11.31,10.33,17.89L339.63,265c0,6.58-4.67,9.23-10.4,5.92L137.33,160.15C131.6,156.84,127,148.84,127,142.26l.37-131.12c0-6.58,4.67-9.23,10.4-5.93Z"/><path class="cls-9" d="M317.49,115.69c5.27,3,9.53,10.41,9.51,16.47l-.34,120.68c0,6.06-4.3,8.5-9.57,5.45L149.51,161.6c-5.27-3-9.53-10.41-9.51-16.47l.34-120.68c0-6.06,4.3-8.5,9.57-5.45Z"/><path class="cls-9" d="M332.5,220.36h0A1.45,1.45,0,0,1,331,219V177a1.45,1.45,0,0,1,1.5-1.4h0A1.45,1.45,0,0,1,334,177v42A1.45,1.45,0,0,1,332.5,220.36Z"/><path class="cls-4" d="M133.61,86.07a6.52,6.52,0,0,1,2.95,5.11c0,1.88-1.34,2.63-3,1.69a6.47,6.47,0,0,1-3-5.11C130.64,85.88,132,85.12,133.61,86.07Z"/><path class="cls-10" d="M248.52,103.83a30.41,30.41,0,0,1,1.1,5.17,23.89,23.89,0,0,1,.19,3c0,.3,0,.59,0,.88V113l-.06.82c0,.05,0,.1,0,.15,0,.27-.06.53-.1.78s-.1.6-.14.84-.12.56-.18.79l0,.12c-.07.24-.13.46-.2.68,0,0,0,.08,0,.12-.07.22-.15.44-.23.65s-.2.46-.29.66-.22.46-.33.65l-.06.11a5.74,5.74,0,0,1-.32.53l0,.08c-.12.18-.24.35-.37.52s-.26.33-.4.48l-.05.06-.41.43-.08.07c-.14.13-.28.26-.43.38l-.07.06-.45.33a4.87,4.87,0,0,1-.53.33l-.09.06-.5.25-.1,0a4.93,4.93,0,0,1-.53.22c-.15.06-.24.08-.33.11-.06-6.38-4.55-14.1-10.08-17.29s-10.14-.64-10.16,5.77c0,0,.16.27.46.73l-.39-.55-.59-.87-.09-.14c-.18-.27-.35-.55-.52-.82l-.11-.18c-.17-.29-.35-.57-.51-.86s-.34-.6-.5-.89l-.09-.17c-.16-.29-.31-.57-.45-.87a.8.8,0,0,1-.08-.16c-.15-.28-.28-.56-.42-.84s-.31-.68-.44-1a1.08,1.08,0,0,1-.08-.19c-.14-.3-.26-.6-.38-.9s-.27-.68-.38-1c0,0,0-.09-.05-.14-.11-.3-.22-.6-.32-.91l-.06-.18c-.21-.62-.4-1.24-.56-1.86a1.8,1.8,0,0,1,0-.19c-.08-.3-.16-.6-.23-.9l0-.16c-.07-.29-.13-.58-.19-.86s-.13-.71-.18-1l0-.19c0-.3-.09-.6-.13-.9s-.07-.67-.09-.95c0-.05,0-.1,0-.15,0-.29,0-.58-.05-.87a1.15,1.15,0,0,0,0-.19c0-.3,0-.59,0-.89a18.87,18.87,0,0,1,.2-2.79,13.58,13.58,0,0,1,1.12-3.88c.11-.23.22-.45.34-.66,2.7-4.85,8.41-6,15-2.17,5.92,3.42,11.1,10,14,17,.2.47.38.93.56,1.4Q248.21,102.8,248.52,103.83Zm-15,.48c3.41,2,6.18.39,6.19-3.53a13.54,13.54,0,0,0-6.15-10.65c-3.4-2-6.18-.39-6.19,3.53a13.57,13.57,0,0,0,6.15,10.65"/><path class="cls-11" d="M274.68,156.36a5.1,5.1,0,0,1,2.32,4l0,9.76c0,1.47-1.05,2.08-2.32,1.34l-89.34-51.58a5.13,5.13,0,0,1-2.31-4l0-9.77c0-1.46,1.05-2.06,2.33-1.32Z"/><path class="cls-11" d="M277,181.54l0,9.76c0,1.47-1.05,2.08-2.32,1.34l-89.34-51.58a5.13,5.13,0,0,1-2.31-4l0-9.75c0-1.48,1.05-2.08,2.32-1.34l89.35,51.58A5.1,5.1,0,0,1,277,181.54Z"/><path class="cls-12" d="M234.73,181.7a9.39,9.39,0,0,1,4.27,7.39v1.74c0,2.72-1.93,3.81-4.3,2.45l-22.43-12.95a9.43,9.43,0,0,1-4.27-7.4v-1.74c0-2.71,1.94-3.81,4.31-2.44Z"/><path class="cls-13" d="M152.72,180.45s-7.68,4.43-8.85,24.66c1,3.74,6.87,5.7,11.39,2.75S155.1,183.89,152.72,180.45Z"/><path class="cls-14" d="M191.76,202.31s17.58-7.84,19.94-9.17,4.14-6.2,5-7.23,4.87-3.4,4.73-2.37-2.22,3-2.22,3a16.89,16.89,0,0,1,1.77,4.13c.3,1.63-1.92,4.88-3.1,5.77s-4,1.18-4,1.18-14.33,9.6-16.7,9.75S191.46,206.15,191.76,202.31Z"/><ellipse class="cls-15" cx="170.5" cy="303.07" rx="35.5" ry="21"/><path class="cls-16" d="M156,298.08s-.45,3.35.16,4.72a3.42,3.42,0,0,0,4.71.91,47,47,0,0,0,4.57-4.26s4.87-2.59,5.33-4-1.22-2.58-2.59-2.28S162.82,296,161,296,156.58,296.41,156,298.08Z"/><path class="cls-16" d="M151,226.8s4.25,70.31,4.79,72.34,6.05,3.21,7.08,0c.65-2.05,2.25-67.11,2.25-67.11Z"/><path class="cls-16" d="M170.06,302.27a1.06,1.06,0,0,0-.37.82c0,1,0,3.12.58,4a4.09,4.09,0,0,0,5.29,1,113.35,113.35,0,0,0,9.27-6.61,3.63,3.63,0,0,0,1.23-1.94,1.09,1.09,0,0,0-.63-1.27,5.25,5.25,0,0,0-3.64-.42c-2,.67-4.54,2.85-7.28,2.73A6.72,6.72,0,0,0,170.06,302.27Z"/><path class="cls-16" d="M179.46,227.56c-.31-2.92-3.8-3.87-7-2.88-6.15-.33-15.66-.07-16,4.7-.5,7.06,2.81,12.1,6,15.53,2.36,2.53,3.93,7.38,4.59,9.74.56,18.64,1.79,44.94,2.56,47.45,1.24,4.06,7.36,3.88,7.64-.07C178.49,288.69,179.46,227.56,179.46,227.56Z"/><path class="cls-17" d="M179.48,229.76c-.72,3.61-11,5.41-17,4.45S150,230.3,150.19,223.33c0,0-.91-27.86-.91-33.34a16.23,16.23,0,0,1,3.44-9.54s3.37-3.84,13.95-1.68c0,0,8.62,1.88,12.59,8.25,0,0,2.74,7,1.83,21.62S179.48,229.76,179.48,229.76Z"/><path class="cls-18" d="M158.41,171s.91,5.33,0,7.76c-.15,1.22,5.17,5.33,9.89,4.27,2.74-.61,2.59-2,2.59-2s-2.28-3.81-2-7.46S161.61,170.28,158.41,171Z"/><path class="cls-14" d="M176.22,160.31a12.56,12.56,0,1,1-12.56-12.56A12.56,12.56,0,0,1,176.22,160.31Z"/><path class="cls-14" d="M176.22,161.15s.15,12.58-2.59,15.11-6.95-2.37-13.67-3.95c-6.73-1.73,5.45-14.81,5.45-14.81Z"/><path class="cls-19" d="M175.2,184.09s2.75-.78,5.9,3.73,7.66,10.42,9.82,11.4,5.11-1,6.29-1,4.32,5.5,3.14,8.25-8.84,4.13-10.8,4.13-14.74-7.67-16.51-12S168.52,184.29,175.2,184.09Z"/><path class="cls-20" d="M195.44,198.83a4,4,0,0,1,3.54-2.36c2.75-.2,5.89,5.11,5.69,8.05s-4.51,4.52-5.5,3.74S200.16,205.51,195.44,198.83Z"/><path class="cls-21" d="M171.18,149.71s4.51,1,5.89,7.86c-.59,2.94-4.72.59-6.29,4.52a21.36,21.36,0,0,1-2.55,5.1l-1-.39s0-3.14-1.38-3.14-1.77,3.73-1,5.3a5.81,5.81,0,0,0,2.55,2.36s-2,3.34-2.94,3.73-4.52-.39-5.9-1-3.93-3.34-5.89-6.48-3.74-8.65-2.56-12.38a7.24,7.24,0,0,1,3.93-4.72,10,10,0,0,1,4.32-3.14A13.73,13.73,0,0,1,171.18,149.71Z"/><path class="cls-22" d="M173.34,181.41l-3.28-1.84s-8.38-.78-11.39-2.75l-1.57,2.23a9.55,9.55,0,0,0,7.46,4.58c5.37.53,7.86-1.57,7.86-1.57Z"/><g class="cls-23"><path class="cls-2" d="M321,81.8v3.68a2.82,2.82,0,0,1-4.23,2.43L299.4,77.84A2.82,2.82,0,0,1,298,75.4V71.72a2.82,2.82,0,0,1,4.23-2.43L319.6,79.36A2.82,2.82,0,0,1,321,81.8Z"/><path class="cls-2" d="M374.59,129.36a2.82,2.82,0,0,1,1.41,2.45v3.69a2.82,2.82,0,0,1-4.23,2.44L299.41,96.16A2.79,2.79,0,0,1,298,93.72V90a2.82,2.82,0,0,1,4.23-2.44Z"/><g class="cls-24"><path class="cls-2" d="M346,151.21v3.66a2.82,2.82,0,0,1-4.23,2.43l-42.35-24.45A2.82,2.82,0,0,1,298,130.4v-3.65a2.82,2.82,0,0,1,4.23-2.44l42.35,24.45A2.82,2.82,0,0,1,346,151.21Z"/></g><path class="cls-2" d="M365,143.71v3.72a2.82,2.82,0,0,1-4.23,2.44l-61.35-35.43A2.79,2.79,0,0,1,298,112v-3.73a2.82,2.82,0,0,1,4.23-2.43l61.35,35.42A2.81,2.81,0,0,1,365,143.71Z"/></g><g class="cls-23"><path class="cls-2" d="M31,55.57v2a1.45,1.45,0,0,0,2.17,1.25l9.1-5.28A1.45,1.45,0,0,0,43,52.25v-2A1.44,1.44,0,0,0,40.82,49l-9.1,5.27A1.45,1.45,0,0,0,31,55.57Z"/><path class="cls-2" d="M3,81.26v1.88a1.44,1.44,0,0,0,2.17,1.25L42.27,63A1.46,1.46,0,0,0,43,61.72V59.84a1.45,1.45,0,0,0-2.17-1.26L3.73,80A1.46,1.46,0,0,0,3,81.26Z"/><g class="cls-24"><path class="cls-2" d="M18,91.33v1.94a1.44,1.44,0,0,0,2.17,1.25L42.27,81.77A1.46,1.46,0,0,0,43,80.51v-2a1.45,1.45,0,0,0-2.17-1.25L18.73,90.07A1.46,1.46,0,0,0,18,91.33Z"/></g><path class="cls-2" d="M9,87.31v1.84a1.45,1.45,0,0,0,2.17,1.26l31.09-18A1.46,1.46,0,0,0,43,71.19V69.35a1.44,1.44,0,0,0-2.17-1.25l-31.09,18A1.46,1.46,0,0,0,9,87.31Z"/></g><path class="cls-25" d="M180.43,122.19a15,15,0,1,1-15-15A15,15,0,0,1,180.43,122.19Z"/><polygon class="cls-4" points="164.13 129.09 157.87 124.51 160.15 121.39 163.4 123.77 169.98 115.37 173.02 117.75 164.13 129.09"/><g class="cls-26"><path class="cls-2" d="M145.87,55.75a14.13,14.13,0,0,1,6.39,11.07c0,4.09-2.9,5.73-6.43,3.69L87.58,36.88a14.1,14.1,0,0,1-6.39-11.09c0-4.06,2.89-5.71,6.43-3.67Z"/></g><g class="cls-26"><path class="cls-2" d="M366.69,233.83a9.76,9.76,0,0,1,4.44,7.69c0,2.84-2,4-4.47,2.56L326.17,220.7a9.79,9.79,0,0,1-4.43-7.7c0-2.83,2-4,4.46-2.55Z"/></g><path class="cls-27" d="M87.56,191.72c1.5.87,1.5,2.27,0,3.13L37.83,223.76a5.91,5.91,0,0,1-5.4,0L1.75,206.05c-1.49-.87-1.5-2.26,0-3.13L51.48,174a6,6,0,0,1,5.4,0Z"/><g class="cls-28"><ellipse class="cls-29" cx="80.56" cy="274.44" rx="36.51" ry="21.15" transform="translate(-0.78 0.23) rotate(-0.16)"/></g><path class="cls-30" d="M72.21,278.32S65.63,280,63.06,280s0,2.57,4.29,2.86,8.29.57,9.15-.57-.19-4.39-.19-4.39Z"/><path class="cls-30" d="M90.51,272.31S83.93,274,81.36,274s0,2.57,4.29,2.86,8.29.57,9.15-.58-.19-4.38-.19-4.38Z"/><path class="cls-31" d="M91.94,201.31s2.38,65.38,2.76,72.24a4.78,4.78,0,0,1-4.19.76s-7.72-42.88-8.86-53.94S78.6,205.5,78.6,205.5Z"/><path class="cls-31" d="M67.54,205.12s-2.29,37.74,4.58,74.34c0,0,2.28,1.14,4.19-1.53,0,0,4.19-64,5.34-73.19S70.59,203.22,67.54,205.12Z"/><path class="cls-31" d="M77.83,234.09s3.82-10.67,7.25-16.39,2.67-14.1,2.67-14.1l-13,1.14Z"/><path class="cls-14" d="M64.63,167.81l-11.32-5.49s-3.44-3.43-4.29-4.12-6.53-2.06-7.56-1.89-2.91,1.72-2.4,2.06,5.32,2.92,5.49,3.95-1.71,2.4-1,3.09,2.23-.69,3.26-.69a16.72,16.72,0,0,1,3.95,1.38l11,6.35Z"/><path class="cls-32" d="M88.79,156.8s-2.09-2.28-5.52,2.1S77,169.76,72.21,169.19s-12.58-4.38-12.58-4.38-3.43,2.29-2.86,5.72c0,0,11.06,8.19,18.49,7.81s15.44-8,17.16-13.34S88.79,156.8,88.79,156.8Z"/><path class="cls-32" d="M65.87,205c.68,3.42,10.42,5.13,16.12,4.22S93.82,205.55,93.62,199c0,0,.86-26.39.86-31.58a15.39,15.39,0,0,0-3.26-9S88,154.69,78,156.74c0,0-8.17,1.78-11.92,7.82,0,0-2.6,6.63-1.73,20.47S65.87,205,65.87,205Z"/><path class="cls-18" d="M85.83,149.41s-.86,5.05,0,7.36c.14,1.15-4.9,5-9.37,4-2.6-.58-2.45-1.88-2.45-1.88s2.16-3.6,1.87-7.06S82.8,148.69,85.83,149.41Z"/><path class="cls-14" d="M69,139.25a11.9,11.9,0,1,0,11.9-11.9A11.9,11.9,0,0,0,69,139.25Z"/><path class="cls-14" d="M69,140s-.14,11.92,2.45,14.32,6.58-2.25,13-3.74c6.37-1.64-5.16-14-5.16-14Z"/><path class="cls-14" d="M54.24,179s-16.66-7.42-18.9-8.67-3.92-5.88-4.76-6.86-4.61-3.22-4.48-2.24,2.1,2.8,2.1,2.8A16.18,16.18,0,0,0,26.52,168c-.28,1.54,1.82,4.61,2.94,5.45a10.07,10.07,0,0,0,3.78,1.12s13.58,9.1,15.82,9.24S54.52,182.67,54.24,179Z"/><path class="cls-32" d="M69.07,164s-2.1-2.29-5.53,2.1-6.29,10.86-11.06,10.29S39.9,172,39.9,172s-3.43,2.28-2.86,5.71c0,0,11.06,8.2,18.49,7.82s15.44-8,17.16-13.34S69.07,164,69.07,164Z"/><path class="cls-21" d="M73.74,129.21s-4.28.93-5.59,7.44c.56,2.79,4.47.56,6,4.28a20.26,20.26,0,0,0,2.42,4.84l.93-.37s0-3,1.3-3,1.68,3.54.93,5a5.46,5.46,0,0,1-2.42,2.23s1.86,3.16,2.79,3.54,4.29-.38,5.59-.93,3.72-3.17,5.58-6.15,3.54-8.18,2.42-11.72A6.84,6.84,0,0,0,89.93,130a9.45,9.45,0,0,0-4.1-3A13,13,0,0,0,73.74,129.21Z"/><path class="cls-21" d="M72.78,137.08a9.39,9.39,0,0,1,1.43,8.29c-1.43,4.86.57,4.86,2.58,11.15s-3.72,13.72,1.71,22.87,20,8,26.59-1.14-3.72-15.73-4-24,6.29-13.15-1.15-18.87-10.57-12-19.72-9.43S68.78,133.07,72.78,137.08Z"/></g></g></g></svg>