<svg xmlns="http://www.w3.org/2000/svg" viewBox="0 0 466.56 417.09"><defs><style>.cls-1{fill:#e0e0e0;}.cls-2{fill:#455a64;}.cls-3{fill:#ebebeb;}.cls-4{fill:#fafafa;}.cls-5{fill:#263238;}.cls-6{fill:#e8505b;}.cls-7{opacity:0.3;}.cls-8{fill:#ffbe9d;}.cls-9{opacity:0.5;}.cls-10{fill:#fff;}.cls-11{opacity:0.4;}</style></defs><title>fourth-fillInTheBlanks</title><g id="katman_2" data-name="katman 2"><g id="Background_Simple" data-name="Background Simple"><path class="cls-1" d="M446.78,83.05c33.37,66.51,22.81,150.45-18.9,212.07s-111.12,101.51-184.1,116C191.69,421.53,135.64,419.42,88,395.85s-85-71-87.88-124c-1.08-20,3.17-41.31,16.54-56.27,21.35-23.89,57.79-24.73,89.81-23.74S175,192,196.4,168.24c16.49-18.28,18.91-44.79,27.6-67.83C238.77,61.25,274.4,30.67,315.35,22a119.26,119.26,0,0,1,17.24-2.34C377.63,16.87,420.35,40,444,78.49Z"/></g><g id="Checklist"><rect class="cls-2" x="128.06" y="26" width="243" height="332"/><polygon class="cls-1" points="361.06 339 316.09 339 148.06 339 148.06 40 361.06 40 361.06 301.8 361.06 339"/><polygon class="cls-3" points="358.06 333 313.51 333 147.06 333 147.06 35 358.06 35 358.06 295.93 358.06 333"/><polygon class="cls-4" points="335.4 310.25 311.09 330 143.06 330 143.06 37 356.06 37 356.06 293.55 335.4 310.25"/><path class="cls-5" d="M335.34,310l1.3-1.08,3.89-3.18,15.4-12.53,0,.07c0-42.2-.09-136-.16-256.88l.24.23c-63.35,0-135.12,0-210.87.4h-1.86l.26-.63c0,110.29,0,212,0,293.37l-.21-.2,167.81.12-.05,0,18.23-14.8,4.57-3.69,1.53-1.22s-.49.43-1.5,1.26L329.3,315l-18.18,14.86,0-.81h0s-91.21.9-167.81,1h-1.19v-.26c1-81.33,1-293.37,1-293.37V36h2.05c75.75.11,147.52.12,210.87,1h.08v-.63s0,214.68,1,256.88v0l-1,0-15.45,12.47-3.91,3.15C335.79,309.63,335.34,310,335.34,310Z"/><path class="cls-6" d="M220.82,16h58.09a14.15,14.15,0,0,1,14.15,14.15V46a0,0,0,0,1,0,0h-87a0,0,0,0,1,0,0V30.76A14.76,14.76,0,0,1,220.82,16Z"/><polygon class="cls-6" points="227.62 16 224.45 0 274.27 0 271.51 16 227.62 16"/><path class="cls-5" d="M328,91.76c0,.14-25,.26-55.71.26s-55.72-.12-55.72-.26,24.94-.26,55.72-.26S328,91.62,328,91.76Z"/><path class="cls-5" d="M328,99.21c0,.14-25,.26-55.71.26s-55.72-.12-55.72-.26S241.49,99,272.27,99,328,99.06,328,99.21Z"/><path class="cls-5" d="M328,106.66c0,.14-25,.26-55.71.26s-55.72-.12-55.72-.26,24.94-.27,55.72-.27S328,106.51,328,106.66Z"/><path class="cls-5" d="M328,114.1c0,.15-25,.26-55.71.26s-55.72-.11-55.72-.26,24.94-.26,55.72-.26S328,114,328,114.1Z"/><path class="cls-5" d="M328,147c0,.15-25,.26-55.71.26s-55.72-.11-55.72-.26,24.94-.26,55.72-.26S328,146.85,328,147Z"/><path class="cls-5" d="M328,154.44c0,.15-25,.26-55.71.26s-55.72-.11-55.72-.26,24.94-.26,55.72-.26S328,154.3,328,154.44Z"/><path class="cls-5" d="M328,161.89c0,.14-25,.26-55.71.26s-55.72-.12-55.72-.26,24.94-.26,55.72-.26S328,161.74,328,161.89Z"/><path class="cls-5" d="M328,169.34c0,.14-25,.26-55.71.26s-55.72-.12-55.72-.26,24.94-.26,55.72-.26S328,169.19,328,169.34Z"/><path class="cls-5" d="M328,200.44c0,.15-25,.26-55.71.26s-55.72-.11-55.72-.26,24.94-.26,55.72-.26S328,200.3,328,200.44Z"/><path class="cls-5" d="M328,207.89c0,.14-25,.26-55.71.26s-55.72-.12-55.72-.26,24.94-.26,55.72-.26S328,207.75,328,207.89Z"/><path class="cls-5" d="M328,215.34c0,.14-25,.26-55.71.26s-55.72-.12-55.72-.26,24.94-.26,55.72-.26S328,215.19,328,215.34Z"/><path class="cls-5" d="M328,222.78c0,.15-25,.26-55.71.26s-55.72-.11-55.72-.26,24.94-.26,55.72-.26S328,222.64,328,222.78Z"/><path class="cls-5" d="M328,252.05c0,.14-25,.26-55.71.26s-55.72-.12-55.72-.26,24.94-.26,55.72-.26S328,251.9,328,252.05Z"/><path class="cls-5" d="M328,259.49c0,.15-25,.27-55.71.27s-55.72-.12-55.72-.27,24.94-.26,55.72-.26S328,259.35,328,259.49Z"/><path class="cls-5" d="M328,266.94c0,.15-25,.26-55.71.26s-55.72-.11-55.72-.26,24.94-.26,55.72-.26S328,266.8,328,266.94Z"/><path class="cls-5" d="M328,274.39c0,.14-25,.26-55.71.26s-55.72-.12-55.72-.26,24.94-.26,55.72-.26S328,274.25,328,274.39Z"/><g class="cls-7"><polyline points="270.97 0 268.22 16 271.64 16 274.41 0 270.06 0"/></g></g><g id="Character"><path class="cls-8" d="M131.19,154.57h0a9,9,0,0,0,9.67-8.63c.19-4.89.36-9.84.36-9.84s7.42-.7,7.95-8,.3-24.3.3-24.3h0a25.6,25.6,0,0,0-25.86,1.66l.45,25.85v13.9C124.11,149.84,126.54,154.21,131.19,154.57Z"/><path class="cls-5" d="M141.8,119.09a3.76,3.76,0,0,0-5-1.09,4.26,4.26,0,0,0-1.42,5.33,5.63,5.63,0,0,0,3.6,2.73,2.82,2.82,0,0,1,2.21,3,9.36,9.36,0,0,1-2.58,5.12,13.59,13.59,0,0,1-8.5,4c-3.13.36-6.71-.29-8.53-2.86-1.32-1.87-1.42-4.31-1.47-6.6l-.33-16.25a23.2,23.2,0,0,1,.37-5.83,7.85,7.85,0,0,1,3.07-4.82c1.79-1.17,4-1.27,6.09-1.93,2.54-.82,4.7-2.51,7.08-3.73s5.3-1.94,7.69-.74c1.71.86,2.86,2.57,4.53,3.52,2.37,1.35,5.6,1,6.76,4.53a6.05,6.05,0,0,1,0,3.74c-1.61,4.75-7.5,6.66-11.73,4.61-.09.81.7,2.6-.14,5.14-.27.81-.37,2-1.64,2.07"/><path class="cls-5" d="M121.54,104a24.87,24.87,0,0,0,2.35-7.37,8.43,8.43,0,0,0-2.31-7.13,7,7,0,0,0-4.84-1.71,8.17,8.17,0,0,0-7.38,5.84,8.82,8.82,0,0,0,3,9,9.55,9.55,0,0,0,9.51,1.24"/><path class="cls-6" d="M123,101.3a3.64,3.64,0,0,1-3.48,3.4c0-.15,1.07-.45,2-1.4S122.83,101.26,123,101.3Z"/><path class="cls-5" d="M120.56,103.09a7,7,0,0,1-2,1.46,5.71,5.71,0,0,1-2.63.74,3.64,3.64,0,0,1-3.07-1.37,4.14,4.14,0,0,1-.54-3.32,6.45,6.45,0,0,1,1.24-2.43,7.8,7.8,0,0,1,1.73-1.76,19.62,19.62,0,0,1-1.44,2,6.63,6.63,0,0,0-1.06,2.32,3.74,3.74,0,0,0,.49,2.91,3.25,3.25,0,0,0,2.65,1.2,5.72,5.72,0,0,0,2.46-.59C119.74,103.57,120.51,103,120.56,103.09Z"/><path class="cls-5" d="M108.08,111.39a3.19,3.19,0,0,1,.36.81,8.35,8.35,0,0,0,1.08,2.09,3,3,0,0,0,2.87,1.32,3.92,3.92,0,0,0,2.77-2.78,28.18,28.18,0,0,0,.75-4.27,6.5,6.5,0,0,1,1.41-3.36,3.57,3.57,0,0,1,2.13-1.22,1.4,1.4,0,0,1,.9.08s-.32,0-.86.12a3.59,3.59,0,0,0-1.89,1.26,6.47,6.47,0,0,0-1.21,3.2,25.49,25.49,0,0,1-.74,4.36,4.36,4.36,0,0,1-3.17,3.09,2.9,2.9,0,0,1-2-.39,4.17,4.17,0,0,1-1.27-1.19,7.29,7.29,0,0,1-1-2.25A2.92,2.92,0,0,1,108.08,111.39Z"/><path class="cls-8" d="M104.47,173s-3.74,27.42,0,30.9,7.35,2.32,7.35,2.32l7.12-6L120.35,173Z"/><path class="cls-8" d="M204.28,97.5l-6.9,4.42c-.31-2.72-2.39-5.43-2.28-4.06s0,8.48,0,8.48L182.8,132.23c-1.67,4.1-5.06,6.68-7.59,7.29l-11.48,3.42,4.49,15.18,16-5.29a13.76,13.76,0,0,0,8.75-8.78l11-33.52a51.73,51.73,0,0,0,1.78-6.6C206.18,101.13,204.28,97.5,204.28,97.5Z"/><path class="cls-6" d="M147.62,380.68l-.17-7.68-14.39.23.14,11.23.89.05c4,.15,20.21.52,22.85-.33C159.88,383.23,147.62,380.68,147.62,380.68Z"/><g class="cls-9"><path class="cls-10" d="M138.33,384a5,5,0,0,0-1.89-3,4.83,4.83,0,0,0-3.38-1l.07,4Z"/></g><g class="cls-11"><path class="cls-10" d="M153.75,382s4.3,1.16,3.78,1.88-16.95,1-24.2.44V384l19.16-.13S152.91,382.05,153.75,382Z"/></g><path class="cls-5" d="M133.12,384a.79.79,0,0,0,.25,0l.71,0,2.61.07c2.21.05,5.27.07,8.64,0s6.42-.16,8.63-.27l2.61-.15.71-.05.25,0a1,1,0,0,0-.25,0l-.71,0-2.62.09c-2.2.08-5.25.18-8.63.22s-6.42,0-8.63,0l-2.61,0h-1Z"/><path class="cls-5" d="M152.5,384.23A6.69,6.69,0,0,1,153,383a5.45,5.45,0,0,1,.88-1,1.86,1.86,0,0,0-1,.92A2,2,0,0,0,152.5,384.23Z"/><path class="cls-5" d="M148.23,382.14s.24-.23.44-.56.34-.62.3-.65-.24.23-.45.56S148.18,382.11,148.23,382.14Z"/><path class="cls-5" d="M147.05,381.54s.26-.12.5-.34.42-.44.39-.48-.26.12-.51.35S147,381.51,147.05,381.54Z"/><path class="cls-5" d="M146.29,380.2a2,2,0,0,0,.76.08,1.65,1.65,0,0,0,.75-.09,1.57,1.57,0,0,0-.75-.08A1.68,1.68,0,0,0,146.29,380.2Z"/><path class="cls-5" d="M146,379.24a2.1,2.1,0,0,0,1.7.1,5,5,0,0,0-.85,0A4.26,4.26,0,0,0,146,379.24Z"/><path class="cls-5" d="M148.69,380.88a2.94,2.94,0,0,0,.93,0,5.65,5.65,0,0,0,1-.23,2.48,2.48,0,0,0,.56-.25.48.48,0,0,0,.22-.29.35.35,0,0,0-.14-.36,1.69,1.69,0,0,0-2.09.52,1.55,1.55,0,0,0-.29.63.45.45,0,0,0,0,.25,2.33,2.33,0,0,1,.41-.8,1.56,1.56,0,0,1,.78-.52,1.4,1.4,0,0,1,1.1.05c.15.11.09.28-.07.38a2.34,2.34,0,0,1-.51.23,7.12,7.12,0,0,1-1,.27C149.05,380.84,148.69,380.85,148.69,380.88Z"/><path class="cls-5" d="M148.93,380.92a.85.85,0,0,0,.1-.64,1.45,1.45,0,0,0-.26-.68.92.92,0,0,0-.78-.45.37.37,0,0,0-.28.43,1,1,0,0,0,.17.41,2.94,2.94,0,0,0,.44.55,1.51,1.51,0,0,0,.54.37s-.19-.17-.45-.46a3.15,3.15,0,0,1-.4-.54c-.13-.2-.22-.55,0-.59s.47.2.62.38a1.51,1.51,0,0,1,.27.6A2.72,2.72,0,0,1,148.93,380.92Z"/><path class="cls-5" d="M133.35,380.19s.41-.05,1.06,0a4.5,4.5,0,0,1,3.82,3c.23.61.25,1,.29,1a.93.93,0,0,0,0-.29,2.85,2.85,0,0,0-.17-.77,4.35,4.35,0,0,0-1.49-2.13,4.44,4.44,0,0,0-2.43-.9,3.72,3.72,0,0,0-.79,0A.9.9,0,0,0,133.35,380.19Z"/><path class="cls-5" d="M134.75,374.18a25.82,25.82,0,0,0-.08,3,25.31,25.31,0,0,0,.1,2.95,28.6,28.6,0,0,0,.08-2.95A25.42,25.42,0,0,0,134.75,374.18Z"/><path class="cls-5" d="M140.33,382.83a7.67,7.67,0,0,0,2.1.18,8.69,8.69,0,0,0,2.1-.2c0-.05-.94,0-2.1,0S140.33,382.78,140.33,382.83Z"/><path class="cls-5" d="M137.51,382.87s.08.2.18.41.15.41.2.4.07-.23,0-.47S137.54,382.83,137.51,382.87Z"/><path class="cls-5" d="M136.43,381.56s.06.19.21.34.3.24.33.2-.06-.18-.21-.33S136.46,381.53,136.43,381.56Z"/><path class="cls-5" d="M134.9,381s.2,0,.41.12.37.18.41.15-.09-.23-.35-.32S134.88,380.94,134.9,381Z"/><path class="cls-5" d="M133.81,380.71c0,.05.07.12.19.17s.23,0,.25,0-.07-.12-.19-.17S133.83,380.67,133.81,380.71Z"/><path class="cls-6" d="M97,378.21l4.88-5.93-11.05-9.2-7.23,8.6.65.61c2.91,2.71,15,13.58,17.53,14.66C104.62,388.15,97,378.21,97,378.21Z"/><g class="cls-9"><path class="cls-10" d="M87.67,374.93a5,5,0,0,0,.55-3.53,4.9,4.9,0,0,0-1.91-3l-2.58,3.09Z"/></g><g class="cls-11"><path class="cls-10" d="M100.58,383.23s2.51,3.69,1.64,3.89-13.47-10.31-18.63-15.44l.22-.23,14.61,12.39S99.92,382.72,100.58,383.23Z"/></g><path class="cls-5" d="M83.64,371.29l.18.18.52.49,1.93,1.76c1.65,1.48,4,3.49,6.53,5.65s5,4.06,6.72,5.42l2.08,1.59.57.42.21.14-.18-.16-.56-.45-2-1.64c-1.72-1.38-4.1-3.3-6.68-5.46s-4.9-4.15-6.57-5.6l-2-1.72-.54-.46A1,1,0,0,0,83.64,371.29Z"/><path class="cls-5" d="M98.28,384a5.84,5.84,0,0,1,1.17-.65,5.63,5.63,0,0,1,1.33-.19,2,2,0,0,0-1.39,0A1.92,1.92,0,0,0,98.28,384Z"/><path class="cls-5" d="M96.39,379.64a1.7,1.7,0,0,0,.71-.14c.37-.11.66-.25.64-.29s-.32,0-.7.13S96.38,379.59,96.39,379.64Z"/><path class="cls-5" d="M95.89,378.42c0,.05.28.08.61.06s.6-.06.6-.11a1.28,1.28,0,0,0-.61-.06C96.16,378.32,95.89,378.37,95.89,378.42Z"/><path class="cls-5" d="M96.2,376.9s.2.29.51.56.6.46.63.42-.2-.28-.51-.55A2,2,0,0,0,96.2,376.9Z"/><path class="cls-5" d="M96.62,376a1.44,1.44,0,0,0,.48.72,1.52,1.52,0,0,0,.74.47c0-.05-.28-.27-.61-.59S96.66,376,96.62,376Z"/><path class="cls-5" d="M97.57,379a2.8,2.8,0,0,0,.72.58,5.59,5.59,0,0,0,.89.47,3,3,0,0,0,.58.18.53.53,0,0,0,.36-.07.38.38,0,0,0,.13-.38,1.7,1.7,0,0,0-2.55-.68c-.13.1-.19.17-.18.18a2.67,2.67,0,0,1,.83-.34,1.73,1.73,0,0,1,.93.11,1.47,1.47,0,0,1,.8.77c0,.17-.11.27-.3.24a2.57,2.57,0,0,1-.54-.16,5.75,5.75,0,0,1-.89-.42C97.86,379.19,97.59,379,97.57,379Z"/><path class="cls-5" d="M97.73,379.18a1,1,0,0,0,.49-.43,1.56,1.56,0,0,0,.24-.68.92.92,0,0,0-.29-.85.36.36,0,0,0-.49.14,1.07,1.07,0,0,0-.15.42,2.88,2.88,0,0,0,0,.71,1.23,1.23,0,0,0,.17.62s0-.24-.05-.63a3.38,3.38,0,0,1,.06-.67c0-.23.19-.56.39-.44a.83.83,0,0,1,.22.69,1.51,1.51,0,0,1-.19.63A4,4,0,0,1,97.73,379.18Z"/><path class="cls-5" d="M86.39,368.46s.34.23.79.71a4.5,4.5,0,0,1,1,4.72c-.22.61-.47.94-.44,1a1.24,1.24,0,0,0,.18-.22,3.54,3.54,0,0,0,.38-.7,4.46,4.46,0,0,0,.25-2.58,4.51,4.51,0,0,0-1.25-2.27,3.91,3.91,0,0,0-.62-.49C86.49,368.49,86.4,368.45,86.39,368.46Z"/><path class="cls-5" d="M91.37,364.82a49.1,49.1,0,0,0-3.84,4.49,27.46,27.46,0,0,0,2-2.19A23.63,23.63,0,0,0,91.37,364.82Z"/><path class="cls-5" d="M90,375a8.09,8.09,0,0,0,1.48,1.51,8,8,0,0,0,1.72,1.21s-.73-.59-1.61-1.35S90,375,90,375Z"/><path class="cls-5" d="M87.8,373.2s-.07.21-.14.43-.14.41-.1.44.2-.13.27-.39S87.84,373.2,87.8,373.2Z"/><path class="cls-5" d="M87.83,371.51s-.08.18-.06.39.07.38.12.37.07-.18,0-.39S87.87,371.5,87.83,371.51Z"/><path class="cls-5" d="M87.05,370.07s.12.16.23.36.16.37.21.37.09-.23-.06-.46S87.06,370,87.05,370.07Z"/><path class="cls-5" d="M86.4,369.16c-.05,0,0,.13,0,.24s.15.19.19.16,0-.13,0-.24S86.44,369.13,86.4,369.16Z"/><path class="cls-5" d="M127.37,217.53s-4.79,20.26-3.44,24.27,10.13,6.33,10.13,6.33l-.29,55.49-48.53,60,17.92,14.66s52.53-60.1,57.16-71-2.95-90.65-2.95-90.65Z"/><path class="cls-5" d="M152.06,209.47,154.44,378l-24.69.13L117.36,240.87h0c-2.61-2.5-6.3-6.78-5.79-16.33l.6-11.09Z"/><path class="cls-2" d="M125.68,313s0-.09.14-.25l.47-.69,1.84-2.6,6.69-9.27,0,.13c-.53-5.85-1.19-12.95-1.89-20.59-.89-10-1.62-19.11-2-25.69-.22-3.29-.36-6-.44-7.8,0-.88-.05-1.58-.07-2.12a3.77,3.77,0,0,1,0-.74,3.54,3.54,0,0,1,.09.73c0,.54.1,1.24.17,2.12.15,1.9.36,4.54.61,7.78.52,6.57,1.3,15.65,2.2,25.67.67,7.67,1.36,14.76,1.8,20.64v.06l-.05.06c-2.82,3.78-5.17,6.92-6.84,9.17l-1.93,2.52-.52.66A1.32,1.32,0,0,1,125.68,313Z"/><path class="cls-2" d="M133.26,243.38a33.8,33.8,0,0,1-6.54-1,34.19,34.19,0,0,1-6.37-1.74,53.28,53.28,0,0,1,6.48,1.23A55.26,55.26,0,0,1,133.26,243.38Z"/><path class="cls-2" d="M150.17,300.92a25.36,25.36,0,0,0-6.67-1.74,25.38,25.38,0,0,0-6.86.66,5.81,5.81,0,0,1,1.93-.75,15.27,15.27,0,0,1,5-.43,15.09,15.09,0,0,1,4.85,1.21A5.53,5.53,0,0,1,150.17,300.92Z"/><path class="cls-2" d="M158.87,308.73c.12.08-6.83,9.4-15.5,20.81s-15.81,20.59-15.93,20.5,6.83-9.4,15.51-20.82S158.76,308.64,158.87,308.73Z"/><path class="cls-2" d="M155.53,221.79a4,4,0,0,1-1.39,1.83,6.87,6.87,0,0,1-10.06-1.06,4.28,4.28,0,0,1-1-2.08c.09,0,.37.81,1.27,1.85a6.86,6.86,0,0,0,9.54,1C155,222.5,155.45,221.73,155.53,221.79Z"/><path class="cls-5" d="M121.8,135.08a21.52,21.52,0,0,1-1.17-30"/><path class="cls-6" d="M107.94,150.8s-5.37,6.06-6.48,29.23c0,0,15.28,2.9,15.56,2.06S107.94,150.8,107.94,150.8Z"/><g class="cls-7"><path d="M107.94,150.8s-5.37,6.06-6.48,29.23c0,0,15.28,2.9,15.56,2.06S107.94,150.8,107.94,150.8Z"/></g><path class="cls-6" d="M110.41,218H157.3l-.76-7.32s-5.36-27.87-5.32-28.24l.85-1.77a17.67,17.67,0,0,0,.2-14.75h0l23-7.85-5.62-18.94c-10.42,1.76-26.17,3.72-26.17,3.72l-2.34.2s-16.26.84-16.6.88c-6.8.83-14.72,1.35-17.61,8.63-1.54,3.89-.08,9.73,2.45,15.75l6,18.5c2.4,10.17-1.43,9.68-3.53,19.92C111.5,208.27,110.38,216.58,110.41,218Z"/><g class="cls-7"><path d="M110.41,218H157.3l-.76-7.32s-5.36-27.87-5.32-28.24l.85-1.77a17.67,17.67,0,0,0,.2-14.75h0l23-7.85-5.62-18.94c-10.42,1.76-26.17,3.72-26.17,3.72l-2.34.2s-16.26.84-16.6.88c-6.8.83-14.72,1.35-17.61,8.63-1.54,3.89-.08,9.73,2.45,15.75l6,18.5c2.4,10.17-1.43,9.68-3.53,19.92C111.5,208.27,110.38,216.58,110.41,218Z"/></g><path class="cls-5" d="M175,158.66a4.21,4.21,0,0,1-1,.43c-.67.24-1.64.58-2.84,1-2.4.81-5.73,1.89-9.41,3.07s-7,2.34-9.31,3.31c-1.17.47-2.1.89-2.75,1.17a5,5,0,0,1-1,.41,4.1,4.1,0,0,1,.94-.59c.62-.34,1.54-.81,2.7-1.33a87.66,87.66,0,0,1,9.29-3.47c3.68-1.18,7-2.2,9.46-2.92,1.22-.36,2.2-.64,2.89-.82A4.57,4.57,0,0,1,175,158.66Z"/><path class="cls-5" d="M115.07,186.23a3.73,3.73,0,0,1-.42-.92c-.27-.72-.6-1.57-1-2.56-.83-2.16-2-5.15-3.2-8.47s-2.21-6.37-2.84-8.61c-.31-1.11-.55-2-.68-2.66a3.34,3.34,0,0,1-.16-1c.07,0,.48,1.36,1.2,3.56s1.76,5.21,3,8.53,2.32,6.32,3.06,8.52c.37,1.1.65,2,.83,2.62A4.36,4.36,0,0,1,115.07,186.23Z"/></g></g></svg>