<svg xmlns="http://www.w3.org/2000/svg" viewBox="0 0 435.43 365.28"><defs><style>.cls-1,.cls-10{fill:#407bff;}.cls-12,.cls-2,.cls-7,.cls-9{fill:#fff;}.cls-2{opacity:0.9;}.cls-3{fill:#f5f5f5;}.cls-4{fill:#ffb573;}.cls-5{fill:#263238;}.cls-6{opacity:0.2;}.cls-11,.cls-7{opacity:0.4;}.cls-8{fill:#ed893e;}.cls-10,.cls-9{opacity:0.5;}.cls-13{fill:#e0e0e0;}</style></defs><title>tablo</title><g id="katman_2" data-name="katman 2"><g id="Background_Simple" data-name="Background Simple"><path class="cls-1" d="M58.46,222.79c21.61,30.22,133.74,63.83,195,51.75,79.44-15.68,130.18-86.3,103.78-164.5C332.7,37.39,251.68,15.11,181.69,47.59,119.37,76.52,30.61,187.64,58.46,222.79Z"/><path class="cls-2" d="M58.46,222.79c21.61,30.22,133.74,63.83,195,51.75,79.44-15.68,130.18-86.3,103.78-164.5C332.7,37.39,251.68,15.11,181.69,47.59,119.37,76.52,30.61,187.64,58.46,222.79Z"/><path class="cls-1" d="M7.37,265.62c30.24,42.3,187.21,89.35,272.94,72.44C391.5,316.12,462.53,217.26,425.57,107.8,391.24,6.1,277.83-25.07,179.86,20.39,92.63,60.87-31.62,216.42,7.37,265.62Z"/><path class="cls-2" d="M7.37,265.62c30.24,42.3,187.21,89.35,272.94,72.44C391.5,316.12,462.53,217.26,425.57,107.8,391.24,6.1,277.83-25.07,179.86,20.39,92.63,60.87-31.62,216.42,7.37,265.62Z"/></g><g id="Shadow"><ellipse id="_Path_" data-name="&lt;Path&gt;" class="cls-3" cx="208.73" cy="353.78" rx="194" ry="11.5"/></g><g id="Character"><polygon class="cls-4" points="230.82 345.28 223.04 345.28 222.71 327.28 230.49 327.28 230.82 345.28"/><polygon class="cls-4" points="277.15 345.28 269.38 345.28 265.91 327.28 273.68 327.28 277.15 345.28"/><path class="cls-5" d="M268.86,344.28h8.67a.66.66,0,0,1,.65.53l1.35,6.85a1.16,1.16,0,0,1-1.15,1.38c-3-.06-4.5-.23-8.31-.23-2.35,0-7.18.24-10.42.24s-3.59-3.2-2.25-3.49c6-1.3,8.26-3.1,10.2-4.81A2,2,0,0,1,268.86,344.28Z"/><path class="cls-5" d="M223.33,344.28h8.24a.64.64,0,0,1,.64.53l1.36,6.85a1.16,1.16,0,0,1-1.15,1.38c-3-.06-7.42-.23-11.24-.23-4.46,0-8.33.24-13.56.24-3.17,0-4-3.2-2.64-3.49,6.07-1.32,11-1.46,16.29-4.68A4.68,4.68,0,0,1,223.33,344.28Z"/><path class="cls-4" d="M222.92,102.79l-8.23-7.38s-18,28.36-21.62,29.94c-4.95,2.14-21.61,16.49-27.08,19.81-.35,1.26-.26,4.73.37,5.73,9.11-.77,31.12-14.15,34.73-17.52C209.34,125.68,222.92,102.79,222.92,102.79Z"/><path class="cls-5" d="M228.64,97c1.2,7.28-15.6,25.12-15.6,25.12l-13.46-11A97.73,97.73,0,0,1,211.79,94.8C218.7,87.7,227.31,89,228.64,97Z"/><path class="cls-6" d="M209.6,119.25l3.48,2.83s3.76-4,7.6-9c4.48-6.52,7.95-12.42,8-15.16v-.06C227,96.63,217.28,107.2,209.6,119.25Z"/><path class="cls-4" d="M167.14,144.58l-7.94,1.48-.43,8.54a34.39,34.39,0,0,0,9.55-4.12Z"/><polygon class="cls-4" points="150.73 148.93 151.9 153.32 158.76 154.6 159.2 146.06 150.73 148.93"/><polygon class="cls-6" points="222.83 327.28 223 336.28 230.54 336.28 230.38 327.28 222.83 327.28"/><polygon class="cls-6" points="273.6 327.28 266.06 327.28 267.8 336.28 275.34 336.28 273.6 327.28"/><polygon class="cls-1" points="201.84 106.52 197.22 112.02 212.19 124.36 218.18 118.44 201.84 106.52"/><path class="cls-5" d="M217.53,90.6s-9.67,23.3-2.09,66.68H256.7c.44-6.33-2.78-37.23,4.06-67.08A106.08,106.08,0,0,0,247,88.46a153.08,153.08,0,0,0-17.54,0A79.08,79.08,0,0,0,217.53,90.6Z"/><path class="cls-6" d="M251.62,97.7c-.81,4.92.45,16.67,4.79,30.25a198.93,198.93,0,0,1,3.7-34.65v0C257.4,93,252.39,93.1,251.62,97.7Z"/><path class="cls-4" d="M245.1,72.19c-1.24,5.64-2,12.64,1.89,16.4,0,0-2.41,5.73-12.89,5.73-9.59,0-4.65-5.73-4.65-5.73,6.33-1.5,6.19-9.28,5.2-13.67Z"/><path class="cls-6" d="M234.65,74.93c.59,2.57.88,6.3-.27,9.26a10.41,10.41,0,0,0,2.83-.86c3.59-1.68,5.4-4.31,7.32-8.21.16-1,.36-2,.57-2.93Z"/><path class="cls-4" d="M226.16,67.48a7.07,7.07,0,0,0,3,4.59c2.11,1.37,4-.37,4.06-2.79.08-2.17-.93-5.51-3.37-5.92A3.36,3.36,0,0,0,226.16,67.48Z"/><path class="cls-6" d="M226.16,67.48a7.07,7.07,0,0,0,3,4.59c2.11,1.37,4-.37,4.06-2.79.08-2.17-.93-5.51-3.37-5.92A3.36,3.36,0,0,0,226.16,67.48Z"/><path class="cls-5" d="M236.46,54.13l-5.08,16.7C224.74,58.9,232.2,48.76,236.46,54.13Z"/><path class="cls-4" d="M250.52,67.5c-3.25,7-4.81,11.26-9.85,13.6-7.57,3.53-15-3-13.93-10.81,1-7,6.17-17.29,14.25-17.55A10.2,10.2,0,0,1,250.52,67.5Z"/><path class="cls-5" d="M246.06,73.57c-4,.49-.7-9.65,2.77-12.39-4.65-.63-17.14-1.67-16.54-8.45.72-8.23,10-5.78,10-3.84,1.78,1.27,15.68.21,14.32,10.76C263.44,59.94,259.62,71.94,246.06,73.57Z"/><path class="cls-5" d="M256.59,59.91h-.07a.27.27,0,0,1-.18-.33c1.54-5.12-.3-6.93-2.07-7.94a.26.26,0,0,1-.09-.36.25.25,0,0,1,.35-.1c2.85,1.62,3.58,4.34,2.31,8.55A.25.25,0,0,1,256.59,59.91Z"/><path class="cls-5" d="M258.84,65.49a.27.27,0,0,1-.19-.08.27.27,0,0,1,0-.38c1.51-1.35,2.13-2.56,1.77-3.5s-1.89-1.62-3.85-1.62a.26.26,0,0,1-.26-.26.26.26,0,0,1,.26-.26c2.22,0,3.88.75,4.34,2,.31.8.23,2.16-1.91,4.08A.28.28,0,0,1,258.84,65.49Z"/><path class="cls-4" d="M250.83,75.78a7.44,7.44,0,0,1-5.41,1.44c-2.52-.35-2.71-2.86-1.11-4.71,1.44-1.67,4.48-3.5,6.58-2.21S252.72,74.32,250.83,75.78Z"/><path class="cls-1" d="M215.44,157.28s-2.47,57.66-2.21,81.18c.27,24.46,6.86,95.82,6.86,95.82h13.06s2.41-69.93,3.58-94c1.27-26.19,5.83-83,5.83-83Z"/><path class="cls-7" d="M215.44,157.28s-2.47,57.66-2.21,81.18c.27,24.46,6.86,95.82,6.86,95.82h13.06s2.41-69.93,3.58-94c1.27-26.19,5.83-83,5.83-83Z"/><path class="cls-5" d="M234.11,330c.06,0-.1,4.27-.1,4.27H218.94l-.51-4.8Z"/><path class="cls-6" d="M233.11,172.68c-.45,28.62.85,46,4,60,.78-13.65,2.07-31.7,3.2-46.7Z"/><path class="cls-1" d="M230.09,157.28s7.3,58.93,11.57,81c4.66,24.18,22.51,96,22.51,96H278.3s-11.15-69.86-13.56-93.79c-2.62-26-8-83.21-8-83.21Z"/><path class="cls-7" d="M230.09,157.28s7.3,58.93,11.57,81c4.66,24.18,22.51,96,22.51,96H278.3s-11.15-69.86-13.56-93.79c-2.62-26-8-83.21-8-83.21Z"/><path class="cls-5" d="M278.4,330.33c.06,0,.6,3.95.6,3.95H263.47l-1.26-4.53Z"/><path class="cls-5" d="M239,65.49c-.23.58-.72.94-1.1.8s-.5-.73-.27-1.31.72-1,1.1-.81S239.19,64.9,239,65.49Z"/><path class="cls-5" d="M232.42,63.05c-.23.58-.72.94-1.1.8s-.5-.73-.27-1.31.73-.94,1.1-.8S232.65,62.47,232.42,63.05Z"/><path class="cls-8" d="M234.39,64.11a23.14,23.14,0,0,1-4.73,4,3.48,3.48,0,0,0,2.55,1.55Z"/><path class="cls-5" d="M233.27,71.87a.18.18,0,0,1-.11-.23.18.18,0,0,1,.24-.11,5,5,0,0,0,4.45-.42.18.18,0,0,1,.21.29A5.27,5.27,0,0,1,233.27,71.87Z"/><path class="cls-5" d="M241.77,64.09a.36.36,0,0,1-.22-.23,2.81,2.81,0,0,0-1.72-2,.36.36,0,0,1-.24-.45.36.36,0,0,1,.46-.25,3.5,3.5,0,0,1,2.21,2.44.39.39,0,0,1-.26.46A.36.36,0,0,1,241.77,64.09Z"/><path class="cls-5" d="M230.41,59.62a.32.32,0,0,1-.13-.1.38.38,0,0,1,.05-.52,3.68,3.68,0,0,1,3.26-.81.35.35,0,0,1,.23.45.39.39,0,0,1-.46.25h0a2.91,2.91,0,0,0-2.57.67A.36.36,0,0,1,230.41,59.62Z"/><path class="cls-4" d="M254,103l10.72-3.49s9.87,25.14,13.52,26.6c5,2,15.07,7.28,21.35,8.54.72,1.06,1.69,4.32,1.39,5.47-9,2.34-27.33-2.6-30.94-5.83C261.83,126.93,254,103,254,103Z"/><path class="cls-5" d="M260.76,90.34c7.27,1.06,15,26.35,15,26.35l-15.54,8.66s-6.46-12-9.57-21C247.4,95,253,89.2,260.76,90.34Z"/><polygon class="cls-1" points="275.75 113.94 279.67 120.79 260.76 128.8 257.41 121.61 275.75 113.94"/><path class="cls-1" d="M266.28,345.36a2.23,2.23,0,0,1-1.47-.4,1,1,0,0,1-.36-1,.6.6,0,0,1,.33-.52c.85-.44,3.31,1.09,3.59,1.27a.18.18,0,0,1,.08.18.21.21,0,0,1-.14.15A9.21,9.21,0,0,1,266.28,345.36Zm-1.11-1.6a.41.41,0,0,0-.23.05c-.05,0-.11.07-.12.21a.71.71,0,0,0,.23.66c.41.36,1.42.41,2.73.14A7.28,7.28,0,0,0,265.17,343.76Z"/><path class="cls-1" d="M268.26,345.08a.11.11,0,0,1-.08,0c-.79-.43-2.29-2.12-2.11-3a.61.61,0,0,1,.59-.48,1,1,0,0,1,.78.23c.88.74,1,3,1,3.06a.18.18,0,0,1-.09.16A.17.17,0,0,1,268.26,345.08ZM266.78,342h-.08c-.24,0-.26.14-.27.19-.11.51.84,1.78,1.62,2.39a4.27,4.27,0,0,0-.85-2.42A.63.63,0,0,0,266.78,342Z"/><path class="cls-1" d="M219.9,345.36a2.84,2.84,0,0,1-1.86-.48,1,1,0,0,1-.32-.89.6.6,0,0,1,.31-.48c.95-.53,4,1.05,4.36,1.23a.18.18,0,0,1,.1.19.21.21,0,0,1-.15.15A13.32,13.32,0,0,1,219.9,345.36Zm-1.35-1.6a.73.73,0,0,0-.35.07.2.2,0,0,0-.11.19.65.65,0,0,0,.2.59c.47.42,1.73.49,3.44.21A9.76,9.76,0,0,0,218.55,343.76Z"/><path class="cls-1" d="M222.3,345.08h-.07c-.92-.42-2.73-2.09-2.57-3,0-.2.19-.46.7-.51a1.28,1.28,0,0,1,1,.31c1,.81,1.12,2.89,1.13,3a.21.21,0,0,1-.08.17A.2.2,0,0,1,222.3,345.08ZM220.5,342h-.11c-.33,0-.36.17-.37.21-.09.52,1.13,1.83,2.06,2.4a4.13,4.13,0,0,0-1-2.37A.93.93,0,0,0,220.5,342Z"/><path class="cls-4" d="M300.3,140.31l7.35.35-3.9-8s-6.44-.09-7.49,4.85Z"/><polygon class="cls-4" points="313.6 136.79 309.7 129.73 303.75 132.66 307.65 140.66 313.6 136.79"/><rect class="cls-9" x="302.69" y="96.86" width="10.79" height="43" transform="translate(407.03 -196.49) rotate(86.43)"/><rect class="cls-10" x="302.69" y="96.86" width="10.79" height="43" transform="translate(407.03 -196.49) rotate(86.43)"/></g><g id="Spreadsheets"><path class="cls-1" d="M292.51,292.83,83.92,276.13a9.94,9.94,0,0,1-9.09-10.67l9.06-113.12a9.94,9.94,0,0,1,10.67-9.09L303.15,160a9.94,9.94,0,0,1,9.09,10.67l-9.06,113.13A9.93,9.93,0,0,1,292.51,292.83Z"/><path class="cls-11" d="M292.51,292.83,83.92,276.13a9.94,9.94,0,0,1-9.09-10.67l9.06-113.12a9.94,9.94,0,0,1,10.67-9.09L303.15,160a9.94,9.94,0,0,1,9.09,10.67l-9.06,113.13A9.93,9.93,0,0,1,292.51,292.83Z"/><path class="cls-1" d="M288.8,292.54,80.21,275.84a10,10,0,0,1-9.09-10.67L80.18,152A10,10,0,0,1,90.85,143l208.59,16.7a10,10,0,0,1,9.09,10.67l-9.06,113.13A9.94,9.94,0,0,1,288.8,292.54Z"/><path class="cls-12" d="M297,278.73,74.33,260.9a1.66,1.66,0,0,1-1.52-1.78l7.77-97a1.66,1.66,0,0,1,1.78-1.52L305,178.47a1.66,1.66,0,0,1,1.52,1.78l-7.77,97A1.65,1.65,0,0,1,297,278.73Z"/><path class="cls-12" d="M95,158.09l-.46,0a5.67,5.67,0,1,1,.46,0Zm0-10.6a4.94,4.94,0,1,0,.39,0Z"/><path class="cls-12" d="M111.37,159.4h-.46a5.71,5.71,0,1,1,.91-11.39,5.71,5.71,0,0,1-.45,11.4Zm0-10.6a4.89,4.89,0,1,0,3.17,8.61,4.82,4.82,0,0,0,1.7-3.33h0a4.88,4.88,0,0,0-4.48-5.26Z"/><path class="cls-12" d="M127.77,160.72l-.46,0a5.64,5.64,0,1,1,.46,0Zm0-10.6a4.82,4.82,0,1,0,.39,0Z"/><rect class="cls-1" x="132.08" y="165.76" width="10.79" height="43" transform="translate(335.11 65.17) rotate(94.58)"/><rect class="cls-1" x="226.63" y="187.31" width="10.79" height="43" transform="translate(458.7 -5.81) rotate(94.58)"/><rect class="cls-10" x="177.69" y="197.38" width="10.79" height="43" transform="translate(415.88 53.85) rotate(94.58)"/><rect class="cls-10" x="127.63" y="221.34" width="10.79" height="43" transform="translate(385.71 129.62) rotate(94.58)"/><rect class="cls-1" x="273.35" y="205.04" width="10.79" height="43" transform="translate(526.82 -33.24) rotate(94.58)"/><rect class="cls-10" x="272.24" y="218.93" width="10.79" height="43" transform="translate(539.47 -17.13) rotate(94.58)"/><rect class="cls-1" x="223.3" y="229" width="10.79" height="43" transform="translate(496.65 42.53) rotate(94.58)"/><path class="cls-13" d="M305.43,194l0-.49-47.59-3.81,1.19-14.87-.49,0-1.19,14.87-47.34-3.79L211.24,171l-.49,0-1.2,14.87L162.21,182l1.2-14.87-.5,0L161.72,182l-47.34-3.79,1.19-14.87-.49,0-1.19,14.87-34.37-2.75,0,.49,34.37,2.75L112.77,192l-34.36-2.76,0,.5,34.37,2.75-1.08,13.4-34.37-2.75,0,.49,34.36,2.76-1.07,13.4-34.37-2.75,0,.49,34.37,2.75-1.07,13.4L75.07,231l0,.5,34.37,2.75-1.08,13.4L74,244.86l0,.49,34.36,2.75-1.23,15.42.49,0,1.24-15.42,47.34,3.79-1.24,15.42.5,0L156.61,252,204,255.76l-1.23,15.42.49,0,1.24-15.42,47.34,3.79L250.55,275l.5,0,1.23-15.42,47.59,3.81,0-.49-47.59-3.81,1.07-13.4L301,249.55l0-.5-47.59-3.81,1.08-13.4,47.58,3.81,0-.49-47.59-3.81,1.08-13.41,47.58,3.81,0-.49-47.58-3.81,1.07-13.4,47.59,3.81,0-.5-47.59-3.81,1.07-13.4Zm-95.91-7.68-1.08,13.4-47.34-3.79,1.08-13.4Zm-50.64,37.41L160,210.28l47.34,3.79-1.07,13.41Zm47.3,4.28-1.08,13.4-47.34-3.79,1.08-13.4ZM160,209.79l1.07-13.4,47.34,3.79-1.07,13.4Zm-45.65-31.13,47.34,3.79-1.07,13.41-47.34-3.8Zm-1.11,13.9,47.34,3.79-1.07,13.4L112.16,206Zm-1.11,13.89,47.34,3.79-1.08,13.41L111,219.86ZM111,220.35l47.34,3.79-1.07,13.4-47.34-3.79Zm-2.18,27.3,1.07-13.4L157.23,238l-1.07,13.4Zm47.83,3.83,1.08-13.4,47.34,3.79L204,255.27Zm95.18,7.62-47.34-3.79,1.07-13.4,47.34,3.79Zm1.11-13.9-47.34-3.79,1.07-13.4L254,231.8Zm1.11-13.89-47.34-3.79,1.07-13.41,47.34,3.79Zm1.11-13.9-47.34-3.79,1.08-13.4L256.24,204Zm1.12-13.9-47.34-3.79,1.07-13.4,47.34,3.79Z"/></g></g></svg>