<svg xmlns="http://www.w3.org/2000/svg" viewBox="0 0 432.65 344.97"><defs><style>.cls-1,.cls-15{fill:#407bff;}.cls-11,.cls-13,.cls-2,.cls-4,.cls-6{fill:#fff;}.cls-2{opacity:0.9;}.cls-3{fill:#f5f5f5;}.cls-4{opacity:0.7;}.cls-15,.cls-5{opacity:0.4;}.cls-6{opacity:0.8;}.cls-7{opacity:0.3;}.cls-8{fill:#ffc3bd;}.cls-9{fill:#263238;}.cls-10,.cls-12{opacity:0.2;}.cls-13{opacity:0.5;}.cls-14{fill:#ed847e;}</style></defs><title>third-add</title><g id="katman_2" data-name="katman 2"><g id="Background_Simple" data-name="Background Simple"><path class="cls-1" d="M4.56,184.68c-34.69,146.64,138.38,42.38,191.44,50,38.07,5.49,71.61,78.7,124,77.09,55.05-1.68,100.9-60.3,111-110.87C446.21,124.52,355.16-18.83,265.36,2.06c-68.1,15.84-64.55,114.84-128.92,140C96,157.93,23.44,104.85,4.56,184.68Z"/><path class="cls-2" d="M4.56,184.68c-34.69,146.64,138.38,42.38,191.44,50,38.07,5.49,71.61,78.7,124,77.09,55.05-1.68,100.9-60.3,111-110.87C446.21,124.52,355.16-18.83,265.36,2.06c-68.1,15.84-64.55,114.84-128.92,140C96,157.93,23.44,104.85,4.56,184.68Z"/></g><g id="Shadow"><ellipse id="_Path_" data-name="&lt;Path&gt;" class="cls-3" cx="210.84" cy="333.47" rx="194" ry="11.5"/></g><g id="Folder"><rect class="cls-1" x="25.57" y="189.06" width="1.02" height="15.5" transform="translate(-22.69 4.36) rotate(-6.67)"/><rect class="cls-1" x="27.59" y="210.2" width="1.02" height="7.82" transform="translate(-24.68 4.71) rotate(-6.67)"/><path class="cls-1" d="M95.42,157.66l-1.2-3.36a10.86,10.86,0,0,0-11.49-7.15l-47.8,5.59A10.88,10.88,0,0,0,25.4,164.8L39,281.1a7.45,7.45,0,0,0,8.26,6.54l171-20a7.45,7.45,0,0,0,6.54-8.27L213,158.83a7.45,7.45,0,0,0-8.27-6.53l-99.29,11.61A9.52,9.52,0,0,1,95.42,157.66Z"/><rect class="cls-1" x="53.06" y="111.73" width="55.09" height="75.9" transform="translate(-27.7 18.64) rotate(-11.27)"/><rect class="cls-4" x="53.06" y="111.73" width="55.09" height="75.9" transform="translate(-27.7 18.64) rotate(-11.27)"/><g class="cls-5"><path class="cls-1" d="M93,125l-33.28,6.63a3,3,0,0,1-3.51-2.34h0a3,3,0,0,1,2.34-3.51l33.28-6.63a3,3,0,0,1,3.51,2.34h0A3,3,0,0,1,93,125Z"/><path class="cls-1" d="M95.44,137.3l-33.28,6.64a3,3,0,0,1-3.51-2.34h0A3,3,0,0,1,61,138.09l33.28-6.63a3,3,0,0,1,3.51,2.34h0A3,3,0,0,1,95.44,137.3Z"/><path class="cls-1" d="M97.89,149.61l-33.28,6.63a3,3,0,0,1-3.5-2.34h0a3,3,0,0,1,2.34-3.5l33.28-6.63a3,3,0,0,1,3.5,2.34h0A3,3,0,0,1,97.89,149.61Z"/><path class="cls-1" d="M100.34,161.92l-33.28,6.63a3,3,0,0,1-3.5-2.34h0a3,3,0,0,1,2.34-3.5l33.28-6.64a3,3,0,0,1,3.5,2.34h0A3,3,0,0,1,100.34,161.92Z"/><path class="cls-1" d="M93.7,176l-24.18,4.82A3,3,0,0,1,66,178.52h0A3,3,0,0,1,68.35,175l24.19-4.82a3,3,0,0,1,3.5,2.34h0A3,3,0,0,1,93.7,176Z"/></g><rect class="cls-1" x="127.49" y="96.11" width="55.09" height="75.9" transform="translate(-16.75 22.26) rotate(-7.79)"/><rect class="cls-4" x="127.49" y="96.11" width="55.09" height="75.9" transform="translate(-16.75 22.26) rotate(-7.79)"/><g class="cls-5"><path class="cls-1" d="M168.89,110.17l-33.62,4.6a3,3,0,0,1-3.35-2.55h0a3,3,0,0,1,2.54-3.35l33.63-4.6a3,3,0,0,1,3.35,2.54h0A3,3,0,0,1,168.89,110.17Z"/><path class="cls-1" d="M170.6,122.6,137,127.21a3,3,0,0,1-3.35-2.55h0a3,3,0,0,1,2.55-3.36l33.62-4.6a3,3,0,0,1,3.35,2.55h0A3,3,0,0,1,170.6,122.6Z"/><path class="cls-1" d="M147.94,138.37l-9.26,1.27a3,3,0,0,1-3.36-2.55h0a3,3,0,0,1,2.55-3.36l9.26-1.26a3,3,0,0,1,3.36,2.54h0A3,3,0,0,1,147.94,138.37Z"/><path class="cls-1" d="M165.9,135.91l-9.26,1.27a3,3,0,0,1-3.36-2.55h0a3,3,0,0,1,2.55-3.35L165.1,130a3,3,0,0,1,3.35,2.55h0A3,3,0,0,1,165.9,135.91Z"/><path class="cls-1" d="M174,147.47l-33.62,4.6a3,3,0,0,1-3.36-2.55h0a3,3,0,0,1,2.55-3.35l33.62-4.6a3,3,0,0,1,3.36,2.54h0A3,3,0,0,1,174,147.47Z"/><path class="cls-1" d="M166.51,161.16l-24.43,3.35a3,3,0,0,1-3.36-2.55h0a3,3,0,0,1,2.55-3.36l24.43-3.34a3,3,0,0,1,3.36,2.55h0A3,3,0,0,1,166.51,161.16Z"/></g><rect class="cls-1" x="73.99" y="105.96" width="55.09" height="75.9" transform="translate(-12.11 9.36) rotate(-4.98)"/><rect class="cls-6" x="73.99" y="105.96" width="55.09" height="75.9" transform="translate(-12.11 9.36) rotate(-4.98)"/><g class="cls-5"><path class="cls-1" d="M116.55,120.73l-33.81,3A3,3,0,0,1,79.51,121h0a3,3,0,0,1,2.71-3.23L116,114.79a3,3,0,0,1,3.23,2.71h0A3,3,0,0,1,116.55,120.73Z"/><path class="cls-1" d="M117.64,133.23l-33.81,3a3,3,0,0,1-3.23-2.71h0a3,3,0,0,1,2.71-3.23l33.81-3a3,3,0,0,1,3.22,2.71h0A3,3,0,0,1,117.64,133.23Z"/><path class="cls-1" d="M118.72,145.73l-33.8,3A3,3,0,0,1,81.69,146h0a3,3,0,0,1,2.71-3.23l33.81-2.94a3,3,0,0,1,3.22,2.71h0A3,3,0,0,1,118.72,145.73Z"/><path class="cls-1" d="M119.81,158.24,86,161.18a3,3,0,0,1-3.23-2.71h0a3,3,0,0,1,2.71-3.22l33.81-2.95a3,3,0,0,1,3.22,2.71h0A3,3,0,0,1,119.81,158.24Z"/><path class="cls-1" d="M111.66,171.54,87.1,173.68A3,3,0,0,1,83.87,171h0a3,3,0,0,1,2.71-3.22l24.57-2.14a3,3,0,0,1,3.22,2.71h0A3,3,0,0,1,111.66,171.54Z"/></g><rect class="cls-1" x="139.34" y="101.31" width="55.09" height="75.9" transform="translate(-6.52 8.21) rotate(-2.76)"/><rect class="cls-6" x="139.34" y="101.31" width="55.09" height="75.9" transform="translate(-6.52 8.21) rotate(-2.76)"/><g class="cls-5"><path class="cls-1" d="M182.78,116.67l-33.9,1.64a3,3,0,0,1-3.12-2.83h0a3,3,0,0,1,2.84-3.12l33.89-1.64a3,3,0,0,1,3.12,2.83h0A3,3,0,0,1,182.78,116.67Z"/><path class="cls-1" d="M183.39,129.21l-33.9,1.64a3,3,0,0,1-3.12-2.84h0a3,3,0,0,1,2.83-3.12l33.9-1.63a3,3,0,0,1,3.12,2.83h0A3,3,0,0,1,183.39,129.21Z"/><path class="cls-1" d="M159.43,142.93l-9.33.45a3,3,0,0,1-3.12-2.83h0a3,3,0,0,1,2.83-3.12l9.34-.45a3,3,0,0,1,3.12,2.83h0A3,3,0,0,1,159.43,142.93Z"/><path class="cls-1" d="M177.55,142.06l-9.34.45a3,3,0,0,1-3.12-2.84h0a3,3,0,0,1,2.83-3.12l9.34-.45a3,3,0,0,1,3.12,2.84h0A3,3,0,0,1,177.55,142.06Z"/><path class="cls-1" d="M184.6,154.28l-33.9,1.64a3,3,0,0,1-3.12-2.84h0a3,3,0,0,1,2.83-3.12l33.9-1.63a3,3,0,0,1,3.12,2.83h0A3,3,0,0,1,184.6,154.28Z"/><path class="cls-1" d="M175.94,167.26l-24.63,1.19a3,3,0,0,1-3.12-2.83h0A3,3,0,0,1,151,162.5l24.63-1.19a3,3,0,0,1,3.12,2.83h0A3,3,0,0,1,175.94,167.26Z"/></g><path class="cls-1" d="M110.69,159.81l-.88-3.29a9.63,9.63,0,0,0-10.71-7l-47.8,5.59A12,12,0,0,0,40.76,167l2.71,113.85a6.58,6.58,0,0,0,7.58,6.38l171-20a8.23,8.23,0,0,0,7.23-8.11l-2.35-98.42a6.57,6.57,0,0,0-7.57-6.38l-99.29,11.62A8.42,8.42,0,0,1,110.69,159.81Z"/><path class="cls-7" d="M110.69,159.81l-.88-3.29a9.63,9.63,0,0,0-10.71-7l-47.8,5.59A12,12,0,0,0,40.76,167l2.71,113.85a6.58,6.58,0,0,0,7.58,6.38l171-20a8.23,8.23,0,0,0,7.23-8.11l-2.35-98.42a6.57,6.57,0,0,0-7.57-6.38l-99.29,11.62A8.42,8.42,0,0,1,110.69,159.81Z"/></g><g id="Character"><path class="cls-8" d="M277.86,105.08c-.73,3.72-1.53,7.37-2.41,11s-1.76,7.3-2.73,10.93l-1.48,5.44-.19.69c-.09.3-.19.6-.31.91a8.79,8.79,0,0,1-1,1.93,6.81,6.81,0,0,1-1.86,1.9,6.11,6.11,0,0,1-2.74,1,7.88,7.88,0,0,1-4.28-.95A15.27,15.27,0,0,1,258.1,136a24.85,24.85,0,0,1-4.07-4.59l2.78-2.5a34.68,34.68,0,0,0,4.29,2.85,11,11,0,0,0,2.06.89c.62.2,1.15.17,1.16.07s-.1,0-.15,0-.05,0,0-.17.12-.35.18-.61l.23-1.1,1.17-5.47,2.35-10.92c.76-3.63,1.58-7.28,2.37-10.89Z"/><path class="cls-9" d="M274.52,93.65c-8.53,6.54-8.19,18.84-8.19,18.84l15.26,3.65s4.68-12.37,2.78-16.9C282.39,94.51,279.32,90,274.52,93.65Z"/><path class="cls-8" d="M257.59,129.12,252,123.51l-3,8.78s4.73,2.56,9.27.15Z"/><polygon class="cls-8" points="244.22 122.65 243.19 129.58 248.96 132.29 251.98 123.51 244.22 122.65"/><polygon class="cls-8" points="323.96 325.83 315.38 326.67 306.45 306.25 315.03 305.41 323.96 325.83"/><polygon class="cls-8" points="379.24 295.64 372.79 301.69 358.88 286.4 365.32 280.35 379.24 295.64"/><path class="cls-9" d="M369.82,298.78l4.84-8.72a.7.7,0,0,1,.87-.33l7.46,2.84a1.43,1.43,0,0,1,.69,2c-1.74,3-2.73,4.38-4.86,8.22-1.31,2.36-3.87,7.78-5.68,11s-5.13,1.64-4.66.12c2.07-6.81,1.68-10.61,1.09-13.61A2.37,2.37,0,0,1,369.82,298.78Z"/><path class="cls-9" d="M314.28,324h10.88a.86.86,0,0,1,.84.64l2.37,8.62a1.34,1.34,0,0,1-1.32,1.72c-3.83,0-5.65,0-10.43,0H302c-4,0-4.8-4-3.16-4.38,7.37-1.63,11.62-3.88,13.89-6A2.22,2.22,0,0,1,314.28,324Z"/><polygon class="cls-10" points="306.45 306.44 311.05 316.97 320 316.97 315.04 305.61 306.45 306.44"/><polygon class="cls-10" points="365.33 280.35 358.88 286.4 366.06 294.28 372.5 288.23 365.33 280.35"/><path class="cls-9" d="M277.1,92.39s-3.86,1.7,9.08,52.9l35.94-3.11c-1.87-14.58-2.66-23.6,1.73-54.23a107.55,107.55,0,0,0-15.44-.69,115.32,115.32,0,0,0-16.32,1.42A150.7,150.7,0,0,0,277.1,92.39Z"/><path class="cls-11" d="M308.41,87s2,0,4.45,0c1.45,2.23-3.26,12-11,18.39a19.55,19.55,0,0,0-6.25-9Z"/><path class="cls-11" d="M292.1,88.55s-.91.12-3.09.62c-1.44,2.24-3.89,11.76.37,16.62a19.19,19.19,0,0,1,6.19-9.4Z"/><path class="cls-8" d="M305.21,69c-.58,5.34-.77,15,3.2,18.23,0,0-4.24,4.34-12.84,9.13-6.24-4.32-3.48-7.71-3.48-7.71,5.74-1.91,5.21-6.24,3.84-10.23Z"/><path class="cls-1" d="M295.43,96.41s5.27-5.74,8-4.63.62,3.07.38,4.91,1.06,6.77-2.59,5.49S295.43,96.41,295.43,96.41Z"/><path class="cls-1" d="M295.22,96.3s-2.49-4.41-5.18-3.82-1.09,2.13-.85,3.79c.31,2.13-1.94,6.2,1.31,5S295.22,96.3,295.22,96.3Z"/><g class="cls-12"><path d="M293.85,95.34a5.53,5.53,0,0,0,.5,2.59,11.56,11.56,0,0,0,.86-1.63,11.81,11.81,0,0,0-1.27-1.77A2.28,2.28,0,0,0,293.85,95.34Z"/><path d="M297.35,94.56c-1.13,1-1.92,1.85-1.92,1.85a14.65,14.65,0,0,0,1,1.73,3.49,3.49,0,0,0,1-2.27A2.33,2.33,0,0,0,297.35,94.56Z"/></g><path class="cls-1" d="M295.36,98.22c-.74,0-1.2-.82-1.26-2.75s1.44-.86,1.44-.86,2-1,1.64,1.32C296.92,97.75,296.13,98.21,295.36,98.22Z"/><path class="cls-10" d="M301.42,72.87l-5.49,5.57a16.81,16.81,0,0,1,.76,2.86c2.2-.52,5.4-2.82,5.44-5.18A9.31,9.31,0,0,0,301.42,72.87Z"/><path class="cls-9" d="M296.72,51s-6,8.32-7,12.05c-4.08,2.37-4.91-9.34-2.74-16.56C293.71,50.65,296.72,51,296.72,51Z"/><path class="cls-8" d="M309.91,60.68c-2.23,8.53-3,12.19-8.23,15.76-7.87,5.38-17.86.78-18.22-8.24-.33-8.13,3.37-20.71,12.49-22.49A12,12,0,0,1,309.91,60.68Z"/><path class="cls-9" d="M314.54,57.28s-4.28,6.94-4.86,10c-3.11,2.12-4.42-7.14-3.11-13C308,49.06,314.54,57.28,314.54,57.28Z"/><path class="cls-9" d="M312.83,52.44c-1.23.94-2.55-2.53-1.31-5.19-2.37.15-5.22-1.26-4.62-3.54-4.66,1.56-6.39-3.19-5.86-6.48.66-4,4.14-4.85,6.19-3.8,0-1.78,4.51-5.52,6.23-2.6,3.19-1.13,8.33-.78,8.23,3.14,2.11.07,8.33,2.45,6,8.05,2.74.16,4.23,3.66,2.7,6.29a4.26,4.26,0,0,1,.88,6.9c1.27,2.64-2.59,6.57-4.63,6.1-1.56,2.39-3.95,4.19-5.52,2.15-3,2.21-6.44-.59-5.67-2.76C312.05,60.14,308.57,54.46,312.83,52.44Z"/><path class="cls-1" d="M317.92,44.05c2.24,3.73,2.05,8-.42,9.44s-6.29-.35-8.53-4.09-2.05-8,.42-9.44S315.68,40.31,317.92,44.05Z"/><path class="cls-9" d="M297.12,49.94c-.14,1.07-3.09.79-3.94-1.09-1.21,1.27-4.08,1.94-5.06.55-1.66,3.11-5,2.3-5.86.8s-1.43-4.26.29-4.8c-1-.87-.7-4.92,1.93-4.41,1.1-2.16,4.11-4.61,6.31-2.7,1.19-1,6-3.08,7.94.74a3.39,3.39,0,0,1,5.1,1.6c3.12-.82,4.47,1.54,4.45,2.82,2.22.6,2.36,4.42,1,5.24.52,1.93.25,4-1.78,3.83-.4,2.59-3.87,3-4.7,1.58C300.56,55.58,296,53.06,297.12,49.94Z"/><path class="cls-9" d="M291.86,42.59c2.53-3.5,11.75-5,19.74.3,7.21,4.73,6.74,15.71,1,15.12s-11.39-7.3-11.39-7.3Z"/><path class="cls-8" d="M310.61,68.38a6.41,6.41,0,0,1-3.79,3.14c-2.16.65-3.29-1.27-2.72-3.33.5-1.86,2.24-4.44,4.43-4.19A2.89,2.89,0,0,1,310.61,68.38Z"/><path class="cls-1" d="M286.18,145.29S274,199.08,282.13,237c5.44,25.4,25.05,76.72,25.05,76.72l15.33-.4s-14.84-53.85-17.91-75c-5.25-36.22,7.9-95.29,7.9-95.29Z"/><path class="cls-10" d="M300.2,156.15l7.67,12.09a371.31,371.31,0,0,0-4.39,43.31C292.7,192.25,297.8,166.37,300.2,156.15Z"/><polygon class="cls-9" points="305.02 314.52 323.96 314.04 322.86 308.22 303.54 309.13 305.02 314.52"/><path class="cls-1" d="M294,144.71s7.13,57.06,22.6,88.2c12.49,25.16,45.82,61,45.82,61l8.52-8.77s-22.51-38.93-31.8-55.64c-22.76-41-4.16-72.25-17.06-87.29Z"/><polygon class="cls-9" points="361.6 295.06 372.59 284.34 368.94 279.38 357.28 291.02 361.6 295.06"/><path class="cls-1" d="M322.48,140l1.9,3.08c.14.24-.13.52-.55.55l-37.69,3.26c-.32,0-.61-.1-.64-.31l-.61-3.19c0-.22.23-.43.58-.46l36.4-3.15A.68.68,0,0,1,322.48,140Z"/><path class="cls-13" d="M322.48,140l1.9,3.08c.14.24-.13.52-.55.55l-37.69,3.26c-.32,0-.61-.1-.64-.31l-.61-3.19c0-.22.23-.43.58-.46l36.4-3.15A.68.68,0,0,1,322.48,140Z"/><path class="cls-1" d="M317.94,144.51l1-.08c.19,0,.33-.13.31-.25l-.82-4.14c0-.12-.21-.21-.4-.19l-1,.08c-.2,0-.34.13-.31.25l.81,4.14C317.57,144.45,317.75,144.53,317.94,144.51Z"/><path class="cls-1" d="M288.91,147l1-.08c.2,0,.34-.13.31-.25l-.82-4.14c0-.12-.2-.21-.39-.19l-1,.08c-.19,0-.33.13-.31.25l.82,4.15C288.54,147,288.72,147,288.91,147Z"/><path class="cls-1" d="M303.43,145.77l1-.08c.19,0,.33-.13.31-.26l-.82-4.14c0-.12-.2-.2-.4-.19l-1,.09c-.19,0-.33.13-.31.25l.82,4.14C303.05,145.7,303.23,145.79,303.43,145.77Z"/><path class="cls-9" d="M295.46,60.39c-.13.7-.62,1.2-1.08,1.11s-.72-.74-.58-1.44.62-1.2,1.08-1.11S295.6,59.69,295.46,60.39Z"/><ellipse class="cls-9" cx="286.84" cy="58.47" rx="1.52" ry="0.98" transform="translate(176.06 329.44) rotate(-79.29)"/><path class="cls-9" d="M287.13,57.47l-1.59-.82S286.15,58.14,287.13,57.47Z"/><path class="cls-14" d="M290.25,60.58a19.14,19.14,0,0,1-3.39,4,3.11,3.11,0,0,0,2.42,1Z"/><path class="cls-9" d="M292.53,68.89a5.8,5.8,0,0,0,4-1.53.16.16,0,0,0,0-.24.18.18,0,0,0-.25,0,5.73,5.73,0,0,1-5,1.29.18.18,0,0,0-.21.14.19.19,0,0,0,.14.21A7,7,0,0,0,292.53,68.89Z"/><path class="cls-9" d="M300.24,57.66a.31.31,0,0,0,.18,0,.35.35,0,0,0,.12-.48,4.13,4.13,0,0,0-3.17-2.05.35.35,0,0,0-.36.34.35.35,0,0,0,.33.36,3.4,3.4,0,0,1,2.6,1.71A.34.34,0,0,0,300.24,57.66Z"/><path class="cls-9" d="M285.31,54.85a.34.34,0,0,0,.17-.05,3.42,3.42,0,0,1,3.1-.2.35.35,0,0,0,.33-.62,4.08,4.08,0,0,0-3.77.21.35.35,0,0,0,.17.66Z"/><path class="cls-8" d="M325.38,96.13c.68.67,1.15,1.18,1.68,1.77s1,1.17,1.48,1.76q1.43,1.78,2.71,3.66a59.72,59.72,0,0,1,4.47,7.91,50.73,50.73,0,0,1,3.12,8.57c.38,1.47.73,3,1,4.47a9.51,9.51,0,0,1-.68,6.32,8.25,8.25,0,0,1-2.23,2.66,10.79,10.79,0,0,1-2.62,1.5,18.34,18.34,0,0,1-5,1.18,41.33,41.33,0,0,1-9.12-.12,92.88,92.88,0,0,1-17.1-3.63l.91-3.63c2.72.45,5.52.87,8.29,1.16s5.54.55,8.27.61a43.23,43.23,0,0,0,7.9-.43,12.53,12.53,0,0,0,3.26-1,2.73,2.73,0,0,0,1.48-1.3,2,2,0,0,0,.12-.73c0-.16,0-.34,0-.53a7.61,7.61,0,0,0-.16-.76c-.28-1.29-.64-2.55-1-3.81a51.34,51.34,0,0,0-3-7.32,53.68,53.68,0,0,0-4.08-6.84c-.75-1.1-1.54-2.17-2.37-3.2-.41-.51-.83-1-1.26-1.51s-.89-1-1.22-1.36Z"/><path class="cls-8" d="M306.28,129.1l-7-3.71-.31,9.28s5,.31,7.86-2Z"/><polygon class="cls-1" points="294 178.97 299.79 116.16 287.44 106.7 249.74 103.23 243.19 174.29 294 178.97"/><polygon class="cls-6" points="294 178.97 299.79 116.16 287.44 106.7 249.74 103.23 243.19 174.29 294 178.97"/><polygon class="cls-1" points="299.79 116.16 287.44 106.7 290.68 118.02 299.79 116.16"/><circle class="cls-1" cx="254.34" cy="164.47" r="10.5"/><circle class="cls-11" cx="254.84" cy="164.97" r="8" transform="translate(-47.4 193.49) rotate(-38.31)"/><polygon class="cls-1" points="259.57 164.2 255.94 163.77 256.37 160.15 253.77 159.84 253.34 163.47 249.72 163.04 249.41 165.64 253.04 166.07 252.61 169.69 255.21 170 255.64 166.37 259.26 166.8 259.57 164.2"/><path class="cls-15" d="M290.57,129.18h0A4.21,4.21,0,0,1,286,133l-27.5-2.53a4.19,4.19,0,0,1-3.8-4.57h0a4.2,4.2,0,0,1,4.57-3.8l27.5,2.53A4.2,4.2,0,0,1,290.57,129.18Z"/><path class="cls-15" d="M281.2,140.53h0a4.2,4.2,0,0,1-4.57,3.8l-19.22-1.77a4.2,4.2,0,0,1-3.8-4.57h0a4.2,4.2,0,0,1,4.57-3.8L277.4,136A4.2,4.2,0,0,1,281.2,140.53Z"/><polygon class="cls-8" points="295 125.94 296.05 132.88 298.96 134.67 299.27 125.39 295 125.94"/><path class="cls-9" d="M323.85,88c4.41.78,10.58,13.42,10.58,13.42l-11.11,10S314.49,101.78,315,96C315.36,91.17,318.24,87,323.85,88Z"/><path class="cls-1" d="M368.12,303.48a1.06,1.06,0,0,0,.34-.06c1.05-.36,1.74-2.31,2.06-3.44a.16.16,0,0,0-.06-.18.17.17,0,0,0-.19,0c-.32.17-3.13,1.67-3.23,2.78a.72.72,0,0,0,.3.63A1.33,1.33,0,0,0,368.12,303.48Zm1.95-3.19c-.49,1.56-1.12,2.59-1.72,2.8a.86.86,0,0,1-.79-.18.36.36,0,0,1-.17-.32C367.45,301.91,369.1,300.84,370.07,300.29Z"/><path class="cls-1" d="M367.68,300.73a6.35,6.35,0,0,0,2.77-.65.18.18,0,0,0,.08-.15.19.19,0,0,0-.09-.15c-.1,0-2.33-1.28-3.53-.85a1.05,1.05,0,0,0-.65.62.71.71,0,0,0,.16.87A2,2,0,0,0,367.68,300.73Zm2.29-.8c-1,.41-2.8.66-3.33.22-.08-.08-.17-.19-.06-.47a.72.72,0,0,1,.45-.42C367.85,299,369.33,299.62,370,299.93Z"/><path class="cls-1" d="M309.56,325.72a14.05,14.05,0,0,0,2.88-.36.19.19,0,0,0,.14-.15.2.2,0,0,0-.1-.18c-.44-.21-4.26-2-5.22-1.32a.55.55,0,0,0-.25.54,1.29,1.29,0,0,0,.52,1A3.48,3.48,0,0,0,309.56,325.72Zm2.28-.6c-1.14.22-3.24.49-4.1-.16a.9.9,0,0,1-.38-.73c0-.14,0-.2.09-.23C308,323.63,310.25,324.42,311.84,325.12Z"/><path class="cls-1" d="M312.4,325.36a.15.15,0,0,0,.11,0,.16.16,0,0,0,.06-.17c0-.16-.9-3.93-3-3.69-.52.06-.66.32-.69.52-.13,1,2.28,2.9,3.44,3.37Zm-2.62-3.56c1.33,0,2.1,2.19,2.35,3.07-1.24-.65-3-2.23-2.88-2.84,0,0,0-.18.38-.23Z"/><path class="cls-9" d="M295.08,59l-1.59-.82S294.09,59.7,295.08,59Z"/></g></g></svg>